<?xml version="1.0" encoding="UTF-8"?>
<svg width="33px" height="33px" viewBox="0 0 72 73" version="1.1" xmlns="http://www.w3.org/2000/svg" xmlns:xlink="http://www.w3.org/1999/xlink">
    <title>Shape</title>
    <g id="Page-1" stroke="none" stroke-width="1" fill="none" fill-rule="evenodd">
        <g id="Apple_Music_Icon_wht_sm_073120" fill="#FFFFFF">
            <path d="M72,19.94 C72,19.22 71.99,18.49 71.97,17.77 C71.93,16.19 71.83,14.6 71.55,13.04 C71.27,11.46 70.8,9.98 70.07,8.54 C69.35,7.13 68.41,5.83 67.29,4.71 C66.17,3.59 64.87,2.65 63.46,1.93 C62.02,1.2 60.55,0.73 58.97,0.45 C57.41,0.17 55.82,0.08 54.24,0.03 C53.51,0.02 52.78,0.01 52.06,0 C51.2,0 50.34,0 49.48,0 L22.52,0 C21.66,0 20.8,0 19.94,0 C19.22,0 18.49,0.01 17.77,0.03 C16.19,0.07 14.6,0.17 13.04,0.45 C11.46,0.74 9.98,1.2 8.55,1.94 C7.13,2.66 5.84,3.6 4.72,4.72 C3.6,5.84 2.65,7.13 1.93,8.55 C1.2,9.99 0.73,11.46 0.45,13.05 C0.17,14.61 0.08,16.2 0.03,17.78 C0.02,18.5 0.01,19.22 0,19.95 C0,20.81 0,21.67 0,22.53 L0,49.49 C0,50.35 0,51.21 0,52.07 C0,52.79 0.01,53.52 0.03,54.24 C0.07,55.82 0.17,57.41 0.45,58.97 C0.73,60.55 1.2,62.03 1.93,63.47 C2.65,64.88 3.59,66.18 4.71,67.3 C5.83,68.42 7.13,69.36 8.54,70.08 C9.98,70.81 11.45,71.28 13.03,71.56 C14.59,71.84 16.18,71.93 17.76,71.98 C18.48,72 19.21,72.01 19.93,72.01 C20.79,72.02 21.65,72.01 22.51,72.01 L49.46,72.01 C50.32,72.01 51.18,72.01 52.04,72.01 C52.76,72.01 53.49,72 54.21,71.98 C55.79,71.94 57.38,71.84 58.94,71.56 C60.52,71.28 62,70.81 63.43,70.08 C64.84,69.36 66.14,68.42 67.26,67.3 C68.38,66.18 69.32,64.89 70.04,63.47 C70.77,62.03 71.24,60.56 71.52,58.97 C71.8,57.41 71.89,55.82 71.94,54.24 C71.96,53.52 71.97,52.79 71.97,52.07 C71.98,51.21 71.97,50.35 71.97,49.49 L71.97,22.52 C72,21.66 72,20.8 72,19.94 Z M52.71,46.85 C52.71,47.76 52.7,48.59 52.51,49.5 C52.32,50.39 51.98,51.22 51.46,51.97 C50.94,52.72 50.27,53.33 49.49,53.79 C48.7,54.26 47.87,54.52 46.99,54.7 C45.33,55.03 44.2,55.11 43.13,54.9 C42.1,54.69 41.23,54.22 40.53,53.58 C39.5,52.63 38.85,51.35 38.71,50.02 C38.55,48.45 39.07,46.78 40.24,45.54 C40.83,44.92 41.58,44.43 42.58,44.04 C43.62,43.64 44.77,43.39 46.54,43.04 C47.01,42.95 47.47,42.85 47.94,42.76 C48.55,42.64 49.08,42.48 49.5,41.96 C49.93,41.44 49.93,40.8 49.93,40.18 L49.93,24.32 C49.93,23.11 49.39,22.78 48.23,23 C47.4,23.16 29.61,26.75 29.61,26.75 C28.61,26.99 28.25,27.32 28.25,28.57 L28.25,51.8 C28.25,52.71 28.2,53.54 28.01,54.45 C27.82,55.34 27.48,56.17 26.96,56.92 C26.44,57.67 25.77,58.28 24.99,58.74 C24.2,59.21 23.37,59.48 22.49,59.66 C20.83,59.99 19.7,60.07 18.63,59.86 C17.6,59.65 16.73,59.17 16.03,58.53 C15,57.58 14.4,56.3 14.25,54.97 C14.09,53.4 14.56,51.73 15.74,50.49 C16.33,49.87 17.08,49.38 18.08,48.99 C19.12,48.59 20.27,48.34 22.04,47.99 C22.51,47.9 22.97,47.8 23.44,47.71 C24.05,47.59 24.58,47.43 25,46.91 C25.42,46.39 25.47,45.78 25.47,45.16 C25.47,40.24 25.47,18.37 25.47,18.37 C25.47,18.01 25.5,17.77 25.52,17.65 C25.61,17.09 25.83,16.6 26.24,16.26 C26.58,15.98 27.02,15.78 27.57,15.66 L27.58,15.66 L49,11.33 C49.19,11.29 50.73,11.02 50.91,11 C52.07,10.9 52.72,11.66 52.72,12.89 L52.71,46.85 L52.71,46.85 Z" id="Shape"></path>
        </g>
    </g>
</svg>