<svg class="black-sheep-svg" id="Solid" enable-background="new 0 0 512 512" viewBox="0 0 512 512" xmlns="http://www.w3.org/2000/svg">
  <path d="m136 391.8v56.2h-32v-66.1c7.8 6.4 17.7 10.1 28 10.1 1.4 0 2.7-.1 4-.2z"/>
  <path d="m448 128c-11.5 0-22.4-4.9-30-13.5-7.4 5-16.5 6.7-25.2 4.7-.6 4.1-1.4 8.2-2.5 12.2 10.9 5.4 17.8 16.5 17.8 28.7 14.6 0 28 7.9 35 20.7 8.8 4.5 26.2 12.8 32.9 8.8 3.6-2.2 4.1-9.3 4.1-13.4 0-22.8-11.6-39.9-20.5-49.7-3.8.9-7.7 1.5-11.6 1.5zm-16 24c-4.4 0-8-3.6-8-8s3.6-8 8-8 8 3.6 8 8-3.6 8-8 8z"/>
  <path d="m369.3 139.6c7.3-11 8.8-27.6 8.5-40.7l-48.9 54.4c14.6-.1 33.2-2.7 40.4-13.7z"/>
  <path d="m429.2 224c-3-2.7-3.6-7.2-1.3-10.5 7.5-11 4.6-25.9-6.4-33.4-4-2.7-8.7-4.2-13.5-4.2-2.7.2-5.3.7-7.9 1.3-4.3 1.2-8.7-1.3-9.9-5.6-.5-1.6-.4-3.3.2-4.9.7-2.2 1.2-4.5 1.5-6.8 0-5.7-3-11-7.9-13.8-.4.8-.9 1.5-1.4 2.2-11.5 17.4-36.3 20.8-53.5 20.8-6.2 0-12.3-.4-18.4-1.3-4.4-.7-7.3-4.8-6.7-9.1.2-1.5.9-3 2-4.1l72-80c3-3.3 8-3.5 11.3-.6 1.3 1.2 2.2 2.7 2.5 4.5 1.4 8 2 16.1 2 24.2 6.8 2.8 14.7.7 19.1-5.3 2.6-3.6 7.6-4.3 11.2-1.7 1 .8 1.8 1.7 2.4 2.9 5.9 11.9 20.3 16.7 32.2 10.8s16.7-20.3 10.8-32.2c-5-10.2-16.5-15.4-27.5-12.6-4.3 1.1-8.6-1.4-9.8-5.7-.2-.7-.3-1.5-.3-2.3 0-.3 0-.5 0-.8 0-8.8-7.2-16-16-16-4.7 0-9.2 2.1-12.3 5.7-2.8 3.4-7.9 3.8-11.3 1-.9-.8-1.7-1.8-2.2-2.9-4.5-10.1-16.3-14.6-26.4-10.1-5.5 2.5-9.6 7.3-11.2 13.1-1.1 4.3-5.5 6.8-9.8 5.7-.8-.2-1.5-.5-2.2-1-11.2-7-26-3.6-33.1 7.6-6.3 10-4.3 23.1 4.6 30.9 3.3 2.9 3.7 8 .8 11.3-1.7 1.9-4.2 2.9-6.8 2.7-.8-.1-1.5-.1-2.3-.1-13.2 0-24 10.8-24 24 0 .8 0 1.7.1 2.5.5 4.4-2.6 8.4-7 8.9-1.4.2-2.9-.1-4.2-.6-4.1-1.8-8.5-2.7-12.9-2.7-7.5 0-14.7 2.6-20.4 7.4-3.2 2.6-7.8 2.4-10.7-.5-9.4-9.3-24.7-9.2-34 .3-2.8 2.9-4.9 6.4-6 10.3-1.2 4.3-5.6 6.7-9.9 5.5-1.3-.4-2.6-1.1-3.6-2.1-6.1-6.3-16.3-6.5-22.6-.3-.8.8-1.6 1.7-2.2 2.7-2.4 3.7-7.4 4.7-11.1 2.3-.9-.6-1.7-1.4-2.3-2.3-4.9-7.4-14.8-9.4-22.2-4.5-3.2 2.1-5.5 5.2-6.5 8.8-1.2 4.2-5.7 6.7-9.9 5.5-12.8-3.7-26.1 3.6-29.8 16.4-1.3 4.4-1.3 9 0 13.4 1.2 4.2-1.2 8.7-5.4 9.9-6.8 2-11.5 8.3-11.5 15.3 0 3.2.9 6.3 2.7 8.9 2.5 3.7 1.5 8.6-2.2 11.1-.2.1-.3.2-.5.3-15.3 8.8-20.6 28.4-11.8 43.7 3.7 6.5 9.6 11.4 16.6 14 4.1 1.5 6.3 6.1 4.7 10.3-.3.9-.9 1.8-1.5 2.5-11.3 13.3-10 33.6 3.2 45.3 11 9.7 27.2 10.7 39.3 2.4 3.6-2.5 8.5-1.6 11.1 1.9 9 12.6 26.5 15.5 39 6.5 1.7-1.2 3.3-2.6 4.7-4.2 2.9-3.3 8-3.6 11.3-.7.3.3.7.6 1 1 8.2 10.4 23.4 12.1 33.8 3.9 3.1-2.5 5.6-5.7 7.2-9.4 1.7-4.1 6.4-5.9 10.5-4.2 1.3.6 2.5 1.5 3.3 2.6 6.5 8.9 19.1 10.8 28 4.3.8-.6 1.6-1.3 2.3-2 3.1-3.1 8.2-3.1 11.3 0 .3.3.5.6.8.9 6 8.2 15.6 13 25.7 13 12.3 0 23.4-7 28.8-18 1.9-4 6.7-5.6 10.7-3.7 1.6.8 2.9 2.1 3.7 3.7 7.7 15.9 26.8 22.6 42.7 14.9 11-5.3 18.1-16.5 18.1-28.8 0-2.2-.2-4.3-.6-6.4-.9-4.3 1.9-8.5 6.3-9.4.6-.1 1.2-.2 1.9-.2h.5c13.2 0 24-10.8 24-24 0-5.4-1.8-10.6-5.2-14.9-2.7-3.5-2.2-8.5 1.3-11.2.5-.4 1-.7 1.5-1 16-7.6 22.8-26.6 15.2-42.6-1.9-4-4.6-7.5-7.8-10.4z"/>
  <path d="m104 464 8 16h32l-8-16z"/>
  <path d="m368 391.3v56.7h-32v-62.4c7.3 4.2 15.6 6.4 24 6.4 2.7 0 5.4-.2 8-.7z"/>
  <path d="m336 464 8 16h32l-8-16z"/>
</svg>