<?xml version="1.0" encoding="UTF-8"?>
<svg width="187px" height="177px" viewBox="0 0 187 177" version="1.1" xmlns="http://www.w3.org/2000/svg" xmlns:xlink="http://www.w3.org/1999/xlink">
    <title>stellers-head</title>
    <g id="Bald-Eagle" stroke="none" stroke-width="1" fill="none" fill-rule="evenodd">
        <g id="Artboard" transform="translate(-431.000000, -262.000000)">
            <g id="stellers-head" transform="translate(433.000000, 265.000000)">
                <path d="M114.115331,-2.18278728e-11 L116.081256,5 L125.33584,35.8150744 L131.34259,46.3925414 L135.354522,62.2075578 L138.893027,78.3405253 L138.893027,85.534989 L131.34259,111.536723 L121.932361,126.380956 L116.5,138.392817 C111.990908,144.553897 108.456928,149.703798 105.898059,153.84252 C103.33919,157.981242 100.484542,163.118217 97.3341146,169.253445 L81.4940551,170.037 L57.1209861,171.843716 L44.3675581,170.548581 L27.2258178,169.253445 L18.1515801,166.062543 L9.35928612,158.418817 L5.88317238,154.924445 L0.373055053,144.947196 L1.797542,134.570987 L9.35928612,128.07728 L37.0680551,112.816 L45.0227104,107.25771 L70.452545,62.7585064 L73.7383819,46.7518821 C73.7871521,46.5143032 73.8787282,46.2875761 74.0086391,46.0827704 L81.0618204,34.963371 C81.0744724,34.943425 81.0878271,34.9239335 81.1018594,34.9049333 L86.2577863,27.9236236 L94.9371688,10.6279487 L98.0689887,13.2795983 L101.143085,7.11447445 L103.58103,10.6279487 L108.941071,5 L114.115331,-2.18278728e-11 Z" id="head-tran_bor" stroke-opacity="0" stroke="#FFFFFF" stroke-width="3" fill="#000000"></path>
                <g id="group-Beak" transform="translate(129.007853, 82.004000)">
                    <g id="group-upper_beak" transform="translate(3.642053, 0.232513)">
                        <path d="M4.37361659,3 L16.4538018,5.32852124 L35.9543665,9.94909011 C36.0986139,9.98326682 36.242215,10.0201154 36.3850966,10.059615 C47.3725866,13.097108 51.3304754,14.589046 48.2587629,14.5354291 C45.1670451,14.481463 39.2831642,14.3787594 30.6071201,14.2273185 L10.187511,14.2273185 L2,14.2273185 L4.37361659,3 Z" id="upper_beak-tran_bor" stroke-opacity="0" stroke="#FFFFFF" stroke-width="3" fill="#060404" transform="translate(25.632722, 8.768412) rotate(-1.000000) translate(-25.632722, -8.768412) "></path>
                        <polygon id="upper_beak_before" fill="#000000" points="4.7503672 0.881462963 5.52451412 4.08066816 3.92293301 12.1024747 0.814203305 12.1024747 3.03612054 0.579333301"></polygon>
                    </g>
                    <g id="group-lower_beak" transform="translate(0.000000, 12.511212)">
                        <polygon id="lower_beak-tran_bor" stroke-opacity="0" stroke="#FFFFFF" stroke-width="3" fill="#060404" points="6.00835823 3 20.930193 3.77049104 47.3091231 4.93196108 50.3617169 4.93196108 49.07511 6.51318775 29.4042658 10.1984994 2 15.391078 3.16676579 3"></polygon>
                        <polygon id="lower_beak_before" fill="#000000" points="4.3523213 1.49562158 4.59216135 4.11289682 3.75802464 13.5600596 0.443654569 14.105843 1.67817395 0.300633514"></polygon>
                    </g>
                </g>
                <ellipse id="eye" stroke="#FFFFFF" stroke-width="2" cx="116.5" cy="77.5" rx="4.5" ry="3.5"></ellipse>
                <path d="M111.378757,64.4247889 L114.628523,64.4247889 C114.714468,64.4247889 114.800054,64.4358685 114.883165,64.4577537 L121.090541,66.092297 C121.969021,66.3236206 122.581256,67.1179421 122.581256,68.0263676 L122.581256,69.3531264 C122.581256,69.9054111 122.133541,70.3531264 121.581256,70.3531264 C121.440327,70.3531264 121.30099,70.3233386 121.172379,70.265716 L116.5,68.1723022 L116.5,68.1723022 L112.346804,67.0858092 C112.168806,67.0392443 112.007105,66.9444748 111.879498,66.811931 L110.82794,65.7196974 C110.535062,65.4154898 110.544246,64.9314558 110.848454,64.6385772 C110.990922,64.501415 111.180993,64.4247889 111.378757,64.4247889 Z" id="brow-patch" fill="#FFFFFF" transform="translate(116.081256, 67.660869) rotate(-16.000000) translate(-116.081256, -67.660869) "></path>
                <polygon id="Path" fill="#10357F" points="123.137031 52.0305226 125.86227 58.2672549 127.818491 67.6850849 129.394208 73.4941424 129.394208 75.0309479 130.98573 75.8776603 133.110377 75.0309479 133.110377 73.4941424 132.007853 68.5782445 128.797703 59.5560382 126.74317 52.717017 125.068027 50.9518437 123.137031 49.5236056"></polygon>
            </g>
        </g>
    </g>
</svg>