<?xml version="1.0" encoding="UTF-8"?>
<svg width="49px" height="47px" viewBox="0 0 49 47" version="1.1" xmlns="http://www.w3.org/2000/svg" xmlns:xlink="http://www.w3.org/1999/xlink">
    <title>stellers-head</title>
    <g id="Bald-Eagle" stroke="none" stroke-width="1" fill="none" fill-rule="evenodd">
        <g id="stellers-head" transform="translate(1.000000, 1.000000)">
            <path d="M29.9318902,-5.68434189e-12 L30.4475426,1.31147541 L32.8749745,9.39411786 L34.4505154,12.1685354 L35.5028253,16.3167365 L36.4309578,20.5483345 L36.4309578,22.435407 L34.4505154,29.2555339 L31.9822586,33.1491032 L30.557377,36.2997553 C29.3746644,37.9157764 28.4477187,39.26657 27.77654,40.3521364 C27.1053613,41.4377028 26.3566011,42.7851061 25.5302596,44.3943463 L21.3648505,44.6 L14.9825537,45.0737616 L11.6373923,44.734054 L7.14119812,44.3943463 L4.76107018,43.5573884 L2.45489472,41.5524766 L1.54312718,40.63592 L0.0978505057,38.0189367 L0.471486427,35.297308 L2.45489472,33.5940406 L9.72585051,29.589 L11.8092355,28.13317 L18.4793561,16.4612476 L19.3412149,12.2627887 C19.3540071,12.200473 19.3780271,12.1410036 19.4121021,12.087284 L21.2656447,9.16515851 C21.2666124,9.163633 21.2675642,9.16209754 21.2685001,9.16055236 L25,3 L25,7 L26,4 L27,2 L28,5 L29,2 L29.9318902,-5.68434189e-12 Z" id="head-tran_bor" stroke-opacity="0" stroke="#FFFFFF" stroke-width="0.786885246" fill="#000000"></path>
            <g id="group-Beak" transform="translate(33.838126, 21.509246)">
                <g id="group-upper_beak" transform="translate(0.955293, 0.060987)">
                    <path d="M1.12724673,0.790353854 L4.19422785,1.40111352 L9.1420789,2.61231814 C9.18096393,2.62184851 9.21966647,2.63210908 9.2581627,2.64310516 C12.0449338,3.43911912 13.0485593,3.83009746 12.2690391,3.81604017 C11.4840974,3.80188512 9.99026674,3.77494649 7.78754693,3.73522429 L2.6033089,3.73522429 L0.524620434,3.73522429 L1.12724673,0.790353854 Z" id="upper_beak-tran_bor" stroke-opacity="0" stroke="#FFFFFF" stroke-width="0.786885246" fill="#060404" transform="translate(6.524620, 2.303380) rotate(-1.000000) translate(-6.524620, -2.303380) "></path>
                    <polygon id="upper_beak_before" fill="#000000" points="1.24599796 0.2312034 1.44905288 1.07033919 1.02896604 3.17441958 0.213561523 3.17441958 0.796359487 0.151956276"></polygon>
                </g>
                <g id="group-lower_beak" transform="translate(0.000000, 2.281629)">
                    <polygon id="lower_beak-tran_bor" stroke-opacity="0" stroke="#FFFFFF" stroke-width="0.786885246" fill="#060404" transform="translate(6.698478, 2.417833) rotate(-2.000000) translate(-6.698478, -2.417833) " points="1.5760656 0.792774024 5.48998947 0.994870034 12.4090531 1.29951791 12.8722628 1.71426589 7.71269711 2.68090503 0.524692953 4.04289284 0.83072988 0.792774024"></polygon>
                    <polygon id="lower_beak_before" fill="#000000" points="1.14159247 1.39229418 1.20450134 2.07879261 0.985711382 4.55673695 0.116368412 4.69989324 0.440176774 1.07885469"></polygon>
                </g>
            </g>
        </g>
    </g>
</svg>