<?xml version="1.0" encoding="UTF-8"?>
<svg width="223px" height="53px" viewBox="0 0 223 53" version="1.1" xmlns="http://www.w3.org/2000/svg" xmlns:xlink="http://www.w3.org/1999/xlink">
    <title>ALBOE</title>
    <g id="Cedar" stroke="none" stroke-width="1" fill="none" fill-rule="evenodd">
        <g id="Drafts" transform="translate(-204.000000, -127.000000)" fill="#000000">
            <g id="full-draft" transform="translate(40.000000, 77.000000)">
                <g id="Header" transform="translate(133.394553, 30.687412)">
                    <g id="ALBOE" transform="translate(31.000000, 20.000000)">
                        <path d="M28.9306059,0 L43.0330267,51.1453328 L28.9306059,51.1453328 L25.8395362,41.7373147 L21.5165133,51.1453328 L-6.82121026e-13,51.1453328 L28.9306059,0 Z M26,23 L23,32 L29,32 L26,23 Z" id="A"></path>
                        <polygon id="L" points="47.5 2 58.4691558 2 59 33.2918412 70.5552626 32.2250635 70.5552626 51.361022 44.9553528 51.361022"></polygon>
                        <path d="M83.9964708,1 C89.7244615,1 95.1172336,3.70045819 98.5484909,8.28699842 C101.660033,12.4461776 101.176804,18.2736755 97.4226948,21.8635401 L93.0969817,26 L98.0972903,30.5393004 C101.639348,33.7547948 102.046903,39.1794243 99.0250597,42.8880681 L98.4148488,43.6369669 C94.6185446,48.2960894 88.9275157,51 82.9175782,51 L75,51 L75,1 L83.9964708,1 Z M88,35 L87,35 C86.4477153,35 86,35.4477153 86,36 L86,36 L86,40 C86,40.5522847 86.4477153,41 87,41 L87,41 L88,41 C88.5522847,41 89,40.5522847 89,40 L89,40 L89,36 C89,35.4477153 88.5522847,35 88,35 L88,35 Z M88,12 L87,12 C86.4871642,12 86.0644928,12.3860402 86.0067277,12.8833789 L86,13 L86,17 C86,17.5128358 86.3860402,17.9355072 86.8833789,17.9932723 L87,18 L88,18 C88.5128358,18 88.9355072,17.6139598 88.9932723,17.1166211 L89,17 L89,13 C89,12.4477153 88.5522847,12 88,12 Z" id="B"></path>
                        <path d="M125,1 C127.761424,1 130,3.23857625 130,6 L130,46 C130,48.7614237 127.761424,51 125,51 L109,51 C106.238576,51 104,48.7614237 104,46 L104,6 C104,3.23857625 106.238576,1 109,1 L125,1 Z M117.605447,21.3125877 L115.605447,21.3125877 C115.053162,21.3125877 114.605447,21.7603029 114.605447,22.3125877 L114.605447,22.3125877 L114.605447,29.3125877 C114.605447,29.8648724 115.053162,30.3125877 115.605447,30.3125877 L115.605447,30.3125877 L117.605447,30.3125877 C118.157731,30.3125877 118.605447,29.8648724 118.605447,29.3125877 L118.605447,29.3125877 L118.605447,22.3125877 C118.605447,21.7603029 118.157731,21.3125877 117.605447,21.3125877 L117.605447,21.3125877 Z" id="O"></path>
                        <path d="M219.605447,22.3125877 C220.710016,22.3125877 221.605447,23.2080182 221.605447,24.3125877 L221.605447,49.3125877 C221.605447,50.4171572 220.710016,51.3125877 219.605447,51.3125877 L205.605447,51.3125877 C204.500877,51.3125877 203.605447,50.4171572 203.605447,49.3125877 L203.605447,24.3125877 C203.605447,23.2080182 204.500877,22.3125877 205.605447,22.3125877 L219.605447,22.3125877 Z M213.605447,34.3125877 L212.605447,34.3125877 C212.053162,34.3125877 211.605447,34.7603029 211.605447,35.3125877 L211.605447,35.3125877 L211.605447,38.3125877 C211.605447,38.8648724 212.053162,39.3125877 212.605447,39.3125877 L212.605447,39.3125877 L213.605447,39.3125877 C214.157731,39.3125877 214.605447,38.8648724 214.605447,38.3125877 L214.605447,38.3125877 L214.605447,35.3125877 C214.605447,34.7603029 214.157731,34.3125877 213.605447,34.3125877 L213.605447,34.3125877 Z" id="O"></path>
                        <polygon id="E" points="133.630879 2 132.395417 51 161.605447 51 161.605447 38.0114177 149.887089 39 149.887089 32.3921656 156.279458 32.3921656 156.279458 25.1395354 149.887089 25.1395354 149.887089 19.7134732 163.888418 19.7134732 163.888418 2"></polygon>
                        <rect id="Rectangle" x="168" y="40" width="11" height="11" rx="3"></rect>
                        <g id="i" transform="translate(186.781359, 14.812588)">
                            <polygon id="Path-49" points="0 36.1874123 1.07224639 11 10.7947141 11 12.2431421 36.1874123"></polygon>
                            <polygon id="Path-51" points="1.5 7.5 10.6470037 7.5 10.1025891 0 2.01916153 0"></polygon>
                        </g>
                    </g>
                </g>
            </g>
        </g>
    </g>
</svg>