<?xml version="1.0" encoding="UTF-8"?>
<svg width="302px" height="434px" viewBox="0 0 302 434" version="1.1" xmlns="http://www.w3.org/2000/svg" xmlns:xlink="http://www.w3.org/1999/xlink">
    <title>eagle</title>
    <g id="Bald-Eagle" stroke="none" stroke-width="1" fill="none" fill-rule="evenodd">
        <g id="eagle" transform="translate(0.060278, 2.639021)">
            <path d="M22.1889565,278.963477 L17.0619128,306.845858 L12.1428259,337.891454 L12.5799336,340.837813 C14.4153803,353.209784 25.9327683,361.751325 38.3047395,359.915878 C40.5094741,359.588794 42.653846,358.938028 44.6685081,357.984627 L44.6685081,357.984627 L44.6685081,357.984627 L63.9811289,351.189544 L73.3064436,357.807316 C87.7714143,368.072481 107.81915,364.667866 118.084315,350.202895 C118.597246,349.480108 119.080037,348.736398 119.531449,347.973674 L119.531449,347.973674 L119.531449,347.973674 L126.817664,333.309123 L135.668399,309.467416 L141.142826,249.307437 L34.8633372,243 L22.1889565,278.963477 Z" id="tail" stroke="#634A2E" stroke-width="3" fill="#FFFFFF" transform="translate(76.642826, 310.500000) rotate(11.000000) translate(-76.642826, -310.500000) "></path>
            <g id="Group" transform="translate(42.113462, 346.483596)">
                <polygon id="claw2" fill="#000000" transform="translate(64.599027, 58.172640) rotate(-77.000000) translate(-64.599027, -58.172640) " points="69.0400232 48.2637304 61.0649189 58.8432694 57 68.0815496 64.9775286 61.3793864 72.198054 49.4759287"></polygon>
                <polygon id="claw1" fill="#000000" transform="translate(37.099027, 71.520655) rotate(-37.000000) translate(-37.099027, -71.520655) " points="41.2478152 62.2637304 33.7974559 72.1471581 30 80.7775789 37.4526241 74.5164039 44.1980542 63.3961686"></polygon>
                <polygon id="claw" fill="#000000" points="11.2478152 57.2637304 3.79745585 67.1471581 -3.10862447e-14 75.7775789 7.45262405 69.5164039 14.1980542 58.3961686"></polygon>
                <polygon id="Path-3" fill="#EAB243" points="30.4923933 4.52192663 30.4923933 22.8959866 8.68194469 56.6417154 13.8358691 60.1686945 30.4923933 35.8188996 30.4923933 63.8399821 41.5846284 63.8399821 38.401103 36.5164039 50.605795 56.6417154 61.0814666 47.3813385 41.5846284 19.8717988 43.8952928 0"></polygon>
            </g>
            <g id="Group" transform="translate(132.113462, 316.483596)">
                <polygon id="claw2" fill="#000000" transform="translate(68.599027, 29.172640) rotate(-128.000000) translate(-68.599027, -29.172640) " points="73.0400232 19.2637304 65.0649189 29.8432694 61 39.0815496 68.9775286 32.3793864 76.198054 20.4759287"></polygon>
                <polygon id="claw1" fill="#000000" transform="translate(44.099027, 73.520655) rotate(-56.000000) translate(-44.099027, -73.520655) " points="48.2478152 64.2637304 40.7974559 74.1471581 37 82.7775789 44.4526241 76.5164039 51.1980542 65.3961686"></polygon>
                <polygon id="claw" fill="#000000" points="11.2478152 47.2637304 3.79745585 59.1471581 -2.84217094e-14 67.7775789 7.45262405 61.5164039 14.1980542 48.3961686"></polygon>
                <polygon id="Path-3" fill="#EAB243" points="20.4923933 0 20.4923933 32.8959866 7.85504981 47 13.2784521 53.6457321 20.4923933 45.8188996 38.3395183 71.0715889 46.8139527 67.2637304 31.5937121 37.5800215 60.0228912 32.8959866 61.8623395 25.17264 31.5846284 29.8717988 33.7531461 7.40465448"></polygon>
            </g>
            <g id="head" transform="translate(78.080912, 0.360979)">
                <polygon id="lower-beak" stroke="#634A2E" stroke-width="3.2775" fill="#EAB243" points="153.919088 45.6390212 169.820191 48.4379262 187.587639 54.8374608 201.417046 63.6265625 204.217193 65.0399496 208.919088 71.6390212 195.856819 67.4786698 180.764071 60.4547874 171.550436 59.6659552"></polygon>
                <polygon id="upper-beak" stroke="#634A2E" stroke-width="3.2775" fill="#EAB243" points="185.715206 26.6390212 197.235475 31.9331761 214.521538 44.9249518 220.919088 60.1529146 216.87585 77.4394965 208.014072 82.6390212 210.573487 73.4604053 207.322934 67.7363681 187.665083 56.0435893 164.884587 47.4051352 151.919088 44.9249518"></polygon>
                <ellipse id="Oval" fill="#634A2E" cx="192.919088" cy="39.1390212" rx="3" ry="1.5"></ellipse>
                <path d="M45.306591,61.4449271 L69.3789204,43.4131361 L85.6262617,22.2590981 L124.579374,0 L155.81446,3.19948592 L179.126074,19.1682816 L186.245609,26.3916078 L169.460804,36.5571921 L155.81446,43.4131361 C162.144123,45.621494 166.692905,47.8771693 169.460804,50.1801619 C172.228704,52.4831546 174.581018,55.969441 176.517748,60.6390212 L162.277351,60.6390212 L139.48503,79.0157844 L136.428679,116.304925 L124.579374,164.475906 L-1.84741111e-13,118.913447 L45.306591,61.4449271 Z" id="Path" stroke="#634A2E" stroke-width="3" fill="#FFFFFF"></path>
                <circle id="eye" fill="#000000" cx="161.919088" cy="29.6390212" r="4"></circle>
            </g>
            <path d="M131.238836,55.8182033 L123,77.7767621 L101.836527,102.246531 L133.899555,113.274371 L133.899555,133.645202 L168.171271,118.905329 L168.171271,136.506147 L188.949192,129.455649 L193.846075,155.403656 L208.045649,136.506147 L213.547026,118.905329 L223.879435,126.635475 L217.007845,218.222224 L186.131571,273.157203 L186.132542,287.142737 L177.439722,321.576798 L171.636332,338.363936 L158.144444,326.49498 L147.088796,321.576798 L141.281806,299.668442 L142.820571,293.940203 L141.281806,294.414177 L92.0452032,294.414177 L83.9895714,289.706203 L94.4301529,324.138579 C94.5962589,324.68642 94.6425636,325.262595 94.5671082,325.828166 L94.5273097,326.069791 L89.4727649,351.815779 L80.9209183,356.26675 C79.0359302,357.247828 77.2895886,358.474907 75.7276964,359.915805 L75.7276964,359.915805 L68.7473645,366.355395 L61.306162,346.414279 L45.2949054,284.986875 L39.7675714,263.862203 L39.3947678,263.644577 L39.1145714,261.368203 L36.2624447,250.464418 L37.7735714,250.464203 L22.8955714,129.455649 L39.3947678,109.568734 L69.6006208,96.7001919 L92.0452032,86.4715564 L131.238836,55.8182033 Z" id="Combined-Shape" stroke="#4A2521" stroke-width="3" fill="#634A2E"></path>
            <path d="M54.8187965,131.61725 L59.4714029,136.325708 C63.4453245,140.347335 66.5869251,145.113346 68.7163109,150.350831 L73.5568504,162.25673 C74.2401992,163.93751 74.3995831,165.785584 74.014096,167.558544 L68.8086067,191.5 L68.8086067,191.5 L53.4519551,220.651559 L36.2624447,253.65754 L36.2624447,276.215971 L27.2334441,294.414177 L22,294.414177 L12.8213658,230.160715 L12.8213658,173.339158 L22,130.234001 L27.9574437,127.136927 C33.2129091,124.404789 39.4183758,124.180725 44.8571999,126.52672 L51.6663429,129.463791 C52.8457047,129.972499 53.9160246,130.703641 54.8187965,131.61725 Z" id="wing" stroke="#4A2521" stroke-width="3" fill="#634A2E"></path>
            <polygon id="Path-2" stroke="#4A2521" stroke-width="4" fill="#634A2E" points="214.066134 121.045503 233.895372 140.841784 240 168.244706 236 215.73561 220.492904 255.311764 210.939722 259.268693 207.460895 272.159909 189.810839 288.592091 182.872575 281.493502 199.102918 244 205.236416 213.360979 199.102918 182.731101 205.236416 148.529869 209.238582 138.082826"></polygon>
        </g>
    </g>
</svg>