<?xml version="1.0" encoding="UTF-8"?>
<svg width="864px" height="1041px" viewBox="0 0 864 1041" version="1.1" xmlns="http://www.w3.org/2000/svg" xmlns:xlink="http://www.w3.org/1999/xlink">
    <title>maple</title>
    <defs>
        <linearGradient x1="50%" y1="0%" x2="50%" y2="100%" id="linearGradient-1">
            <stop stop-color="#99AD3F" offset="0%"></stop>
            <stop stop-color="#5C662C" offset="45.5506865%"></stop>
            <stop stop-color="#798931" offset="100%"></stop>
        </linearGradient>
        <path d="M203.091067,824.101741 C196.248431,841.519361 190.581764,864.852694 186.091067,894.101741 L170.091067,1016.10174 C165.921404,1031.27692 173.921404,1036.61025 194.091067,1032.10174 C214.260731,1027.59323 234.594064,1014.92656 255.091067,994.101741 L261.091067,876.101741 C258.628971,862.650516 257.628971,851.650516 258.091067,843.101741 C258.553163,834.552967 260.886497,820.8863 265.091067,802.101741 L265.091067,773.101741 L265.091067,711.101741 C271.849227,664.905708 276.849227,634.905708 280.091067,621.101741 C283.332908,607.297775 288.666241,593.297775 296.091067,579.101741 L311.091067,548.101741 L316.091067,533.101741 C334.279493,525.993983 348.279493,522.993983 358.091067,524.101741 C366.874826,525.093456 376.076755,529.471812 385.696855,537.23681 C386.447308,537.842548 387.245378,539.797525 388.091067,543.101741 L403.091067,596.101741 L408.091067,649.101741 C413.940282,676.365615 417.606949,688.698948 419.091067,686.101741 C421.317245,682.205931 407.848044,623.356565 414.091067,611.101741 C420.334091,598.846918 442.889453,639.50497 446.091067,633.101741 C447.520654,630.242569 437.455129,625.776055 430.091067,609.101741 C427.670618,603.621162 425.003952,591.954495 422.091067,574.101741 C416.091067,548.768408 413.091067,535.101741 413.091067,533.101741 C413.091067,531.101741 432.757734,550.768408 472.091067,592.101741 C516.757734,622.768408 541.091067,638.435075 545.091067,639.101741 C549.091067,639.768408 562.091067,635.768408 584.091067,627.101741 C585.748715,623.078036 583.082048,622.078036 576.091067,624.101741 C569.100086,626.125446 558.766753,630.125446 545.091067,636.101741 L480.091067,585.101741 C497.275233,580.588669 504.275233,576.922002 501.091067,574.101741 C496.061617,569.647085 480.091067,582.101741 471.091067,580.101741 C467.084067,579.211297 448.509945,558.730059 446.091067,555.101741 C442.091067,549.101741 415.588483,526.385979 401.091067,518.101741 C396.122232,515.262407 393.413224,518.021621 388.091067,518.101741 C384.737709,518.152223 379.071042,518.152223 371.091067,518.101741 C346.424401,518.768408 334.091067,518.101741 334.091067,516.101741 C334.091067,514.101741 334.757734,505.768408 336.091067,491.101741 L391.091067,483.101741 C432.993968,478.777684 447.660635,475.777684 435.091067,474.101741 C426.798492,472.996065 408.976481,476.427182 386.091067,479.101741 C378.222122,480.021365 363.222122,481.021365 341.091067,482.101741 C345.289178,465.921876 348.289178,454.588543 350.091067,448.101741 C355.091067,430.101741 372.188358,404.897592 375.091067,401.101741 C378.916797,396.098864 381.583464,405.432197 383.091067,429.101741 C397.946498,441.204195 408.279831,448.204195 414.091067,450.101741 C422.807922,452.948061 472.113936,424.914631 471.091067,422.101741 C470.068198,419.288851 421.421985,442.481138 410.091067,439.101741 C402.537122,436.84881 395.537122,431.182144 389.091067,422.101741 L377.091067,388.101741 C416.503878,368.101741 434.837211,358.101741 432.091067,358.101741 C424.710284,358.101741 375.091067,381.101741 362.091067,389.101741 C357.108084,392.168193 354.683906,406.187304 347.091067,427.101741 C342.920717,438.588952 333.920717,460.588952 320.091067,493.101741 L296.091067,549.101741 L284.091067,566.101741 L272.612336,580.641468 C271.585674,581.941902 269.699191,582.163841 268.398756,581.137182 C267.91433,580.75474 267.559649,580.232193 267.383078,579.640794 C263.105007,565.312028 261.674337,554.799011 263.091067,548.101741 C265.47757,536.820093 276.46893,531.689821 279.091067,533.101741 C281.713205,534.513662 268.091067,552.101741 276.091067,555.101741 C281.424401,557.101741 286.757734,549.768408 292.091067,533.101741 L302.091067,435.101741 C301.698767,422.577876 308.698767,408.91121 323.091067,394.101741 C332.091067,391.101741 357.554623,372.916999 374.091067,359.101741 C390.627512,345.286484 408.273997,328.578875 404.091067,329.101741 C384.273997,331.578875 329.060513,378.453658 323.091067,373.101741 C319.111437,369.533797 326.44477,350.533797 345.091067,316.101741 L377.091067,266.101741 C382.997279,250.580832 384.997279,240.914166 383.091067,237.101741 C380.997279,232.914166 374.997279,234.580832 365.091067,242.101741 L320.091067,314.101741 C312.813548,331.510379 306.480215,341.177046 301.091067,343.101741 C297.146882,344.510379 294.146882,336.510379 292.091067,319.101741 C279.656333,269.790942 271.989666,245.457608 269.091067,246.101741 C264.743168,247.067941 277.091067,287.626999 277.091067,323.101741 C277.091067,358.576484 269.091067,390.101741 276.091067,394.101741 C283.091067,398.101741 260.500609,470.654407 261.091067,480.101741 C261.681526,489.549076 269.091067,461.101741 279.091067,461.101741 C289.091067,461.101741 289.813179,452.768673 280.091067,476.101741 C273.609659,491.65712 265.276326,505.65712 255.091067,518.101741 L232.091067,625.101741 C222.580267,658.804605 217.580267,682.137939 217.091067,695.101741 C216.357267,714.547446 227.666712,715.013193 227.091067,727.101741 C226.808164,733.042709 223.474831,737.709376 217.091067,741.101741 C210.424401,751.744337 207.091067,760.744337 207.091067,768.101741 C207.091067,785.565634 223.475007,797.889339 219.091067,810.101741 C214.707128,822.314144 209.327113,808.22817 203.091067,824.101741 Z" id="path-2"></path>
        <linearGradient x1="50%" y1="0%" x2="50%" y2="100%" id="linearGradient-3">
            <stop stop-color="#7D8653" offset="7.6606377%"></stop>
            <stop stop-color="#585A35" offset="64.9169068%"></stop>
            <stop stop-color="#91A04D" offset="100%"></stop>
        </linearGradient>
        <path d="M247.091067,769.101741 C244.091067,775.101741 241.091067,816.101741 243.091067,822.101741 C246.582442,832.575865 250.332237,928.424962 258.091067,920.101741 C262.907097,914.935385 271.467198,821.341844 273.091067,817.101741 C275.917728,809.721015 274.251062,780.721015 268.091067,730.101741 L262.091067,681.101741 L257.091067,646.101741 C253.757734,620.101741 251.757734,604.101741 251.091067,598.101741 C250.091067,589.101741 247.687805,599.8329 245.091067,598.101741 C242.494329,596.370583 239.181958,594.950325 240.091067,590.101741 C241.000177,585.253158 247.059673,588.083826 248.091067,582.101741 C248.778663,578.113685 247.778663,571.113685 245.091067,561.101741 L245.091067,541.101741 L242.091067,488.101741 L238.091067,420.101741 L231.091067,377.101741 C224.424401,351.101741 220.424401,336.101741 219.091067,332.101741 C217.536012,327.436575 194.444521,225.055268 187.091067,213.101741 C175.399208,194.095848 186.430327,266.469309 186.091067,271.101741 C185.722645,276.132371 196.389312,308.132371 218.091067,367.101741 L218.091067,387.101741 C217.591503,393.107554 217.591503,399.440887 218.091067,406.101741 C218.840413,416.093023 219.832068,423.324743 221.091067,427.101741 C222.350067,430.87874 223.735344,419.51281 226.091067,420.101741 C227.735344,420.51281 229.700951,422.697966 229.091067,429.101741 C228.684478,433.370925 227.017812,437.370925 224.091067,441.101741 L221.091067,456.101741 L224.091067,472.101741 L226.091067,508.101741 L229.091067,545.101741 C229.091067,560.435075 227.424401,565.768408 224.091067,561.101741 C220.757734,556.435075 215.757734,552.101741 209.091067,548.101741 L187.091067,531.101741 L174.091067,517.101741 C169.507603,511.266532 165.840936,507.266532 163.091067,505.101741 C116.091067,468.101741 94.2901195,441.900057 96.0910673,445.101741 C97.6312025,447.83976 117.077184,468.760475 148.429013,501.863889 C154.425008,508.194872 165.312359,518.607489 181.091067,533.101741 L216.091067,565.101741 C220.549759,567.826707 223.549759,570.493373 225.091067,573.101741 C226.632376,575.71011 227.965709,580.71011 229.091067,588.101741 L238.091067,618.101741 L240.091067,639.101741 C242.140512,651.980556 243.807179,663.647222 245.091067,674.101741 C247.0169,689.78352 251.387177,710.08652 252.091067,715.101741 C252.794958,720.116963 247.803288,764.116195 247.091067,769.101741 Z" id="path-4"></path>
    </defs>
    <g id="Big-Leaf-Maple" stroke="none" stroke-width="1" fill="none" fill-rule="evenodd">
        <g id="Artboard" transform="translate(15.000000, 3.000000)">
            <g id="maple" transform="translate(0.000000, -0.101741)">
                <path d="M229.423774,1035.89675 L164.640171,1035.89675 L215.540117,686.199229 L252.852053,521.376515 L269.287508,414.140098 L273.963973,339.959458 L273.963973,307.849394 L258.482092,245.00533 L252.852053,179.658485 L233.091067,69.1017414 L260.091067,171.101741 L267.091067,72.1017414 L269.091067,151.101741 L301.091067,102.101741 L271.091067,160.101741 L269.287508,179.658485 L273.963973,245.00533 L292.091067,308.101741 L301.091067,236.101741 L309.091067,171.101741 L331.091067,81.1017414 L318.468233,170.869228 L379.091067,86.1017414 L326.441481,170.869228 L314.091067,236.101741 L301.551019,313.439636 L301.551019,339.959458 L365.048064,235.686321 L393.699872,179.658485 L394.091067,35.1017414 L400.514357,146 C412.622178,123.553534 421.814414,103.587447 428.091067,86.1017414 C434.36772,68.6160355 442.034387,41.6160355 451.091067,5.10174141 L445.091067,35.1017414 L484.091067,0.101741409 L451.091067,40.1017414 L424.135423,146 L393.699872,257.336747 L349.593447,313.439636 L326.441481,369.675821 L375.091067,340.101741 L409.091067,313.101741 L431.075201,290.146858 L451.091067,277.101741 L471.191888,249.691531 L484.091067,232.101741 L480.091067,257.101741 L514.091067,247.101741 L471.091067,268.101741 L431.091067,308.101741 L380.973685,358.035159 L313.620991,406.945831 L301.517367,466.693884 L295.076789,525.101741 L295.076789,545.360728 L326.441481,473.122815 L360.091067,383.466066 L375.144448,377.905328 L466.091067,335.101741 L553.091067,245.101741 L484.091067,328.101741 L511.091067,323.101741 L379.091067,389.101741 L393.699872,424.142161 L400.514357,434.614191 L414.376,439.132336 L484.095814,414.140098 L537.091067,366.101741 L594.091067,288.101741 L581.091067,316.101741 L618.091067,277.101741 C598.575337,301.563755 583.242003,320.897088 572.091067,335.101741 C568.941606,339.113692 564.941606,342.780358 560.091067,346.101741 L545.091067,370.101741 L495.091067,414.101741 L470.707441,430.255648 L414.376,450.34441 L380.973685,439.132336 L375.144448,400.857876 L355.029369,439.132336 L349.593447,460.857029 L343.842557,480.460399 L414.376,473.122815 L451.01265,460.857029 L523.496619,444.159809 L588.049795,406.945831 L618.091067,389.101741 L638.907201,381.253035 L692.091067,294.101741 L649.216288,377.366003 L679.091067,366.101741 L602.083779,414.140098 L531.273086,456.244477 L431.075201,480.460399 L337.872277,492.724023 L337.872277,515.083877 L383.361975,515.083877 L400.514357,506.695412 L445.487636,554.476085 L472.748464,578.572716 L602.091067,545.101741 L481.578099,586.377486 L498.235839,601.101741 L545.418567,633.567246 L569.827009,623.603103 L620.091067,571.101741 L583.748368,619.311532 L684.091067,578.101741 L576.122102,633.567246 L545.418567,643.004533 L470.707441,593.521426 L414.376,534.368869 L419.645487,554.476085 L431.075201,606.171399 L470.707441,643.004533 L523.496619,679.158081 L598.091067,704.101741 L668.955121,679.158081 L690.250608,643.004533 L708.091067,612.101741 L699.900619,644.236742 L748.091067,643.101741 L696.455956,657.751784 L691,679.158081 L653.091067,696.101741 L712.091067,713.101741 L769.091067,665.101741 L717.091067,721.101741 L644.091067,700.101741 L608.091067,713.101741 L569.827009,708.113855 L498.235839,673.432826 L445.487636,638.779234 L414.376,606.171399 L414.376,638.779234 L427.820086,686.199229 L470.707441,708.113855 L531.273086,736.861356 L576.091067,763.101741 L669.091067,779.101741 L700.091067,787.101741 L748.091067,745.101741 L708.091067,794.101741 L594.091067,774.101741 L624.091067,796.101741 L723.091067,825.101741 L804.091067,763.101741 L742.091067,825.101741 L731.091067,835.101741 L784.443564,861.171711 L846.091067,847.101741 L784.091067,870.101741 L736.091067,850.101741 L712.091067,835.101741 L673.091067,821.101741 L626.272973,805.234072 L540.7113,756.065839 L523.496619,744.756116 L455.917894,713.504259 L414.376,686.199229 L405.879281,647.235957 L400.514357,593.521426 L383.361975,534.368869 L355.029369,525.101741 L318.27776,534.368869 L306.218496,567.619638 L286.475317,617.420793 L269.287508,708.113855 L269.287508,763.330225 L252.852053,1035.89675 L229.423774,1035.89675 Z" id="back" stroke="#5F584E" stroke-width="4" fill="#A2998C" stroke-linejoin="round"></path>
                <g id="back-moss">
                    <use fill="#3D4D21" xlink:href="#path-2"></use>
                    <use fill-opacity="0.5" fill="url(#linearGradient-1)" xlink:href="#path-2"></use>
                </g>
                <path d="M276.091067,559.101741 L276.829404,558.178821 C279.499323,556.652861 281.253211,555.293835 282.091067,554.101741 C285.735714,548.916177 287.051241,544.108858 288.091067,544.101741 C289.489457,544.09217 289.489457,548.758837 288.091067,558.101741 L272.421426,577.253525 C271.721961,578.108389 270.461931,578.234392 269.607051,577.534945 C269.306461,577.289007 269.083981,576.960869 268.966777,576.590594 C265.446775,565.470115 263.488205,557.973831 263.091067,554.101741 C262.653476,549.835226 263.653476,545.501892 266.091067,541.101741 C270.886092,535.732785 274.219425,534.732785 276.091067,538.101741" id="heart" stroke-opacity="0.244264403" stroke="#000000" stroke-width="4"></path>
                <path d="M252.828647,1035.89675 L262.883523,913.834199 L278.913751,797.600289 L252.828647,596.20269 L247.03606,548.514023 L240.091067,403.101741 L216.091067,311.101741 L201.091067,261.101741 L176.757603,158.759502 L184.091067,63.1017414 L171.38645,145.171219 C171.301961,145.717003 170.791024,146.090956 170.24524,146.006467 C169.801846,145.937828 169.458445,145.582269 169.405269,145.136756 L160.091067,67.1017414 L160.091067,67.1017414 L156.091067,144.101741 L124.091067,95.1017414 L137.091067,130.101741 L68.0910673,63.1017414 L146.848664,151.146098 L184.091067,275.101741 L216.091067,400.101741 L223.338358,506.712953 L223.338358,556.190986 L182.456842,522.135103 L165.091067,503.101741 L139.803145,486.117771 L23.6888253,369.17667 L-1.98951966e-13,353.7573 L73.4578837,427.25681 L10.0910673,408.101741 L85.8509538,439.656903 L142.786973,496.625187 L153.091067,507.101741 L29.0910673,454.101741 L170.091067,525.101741 L177.117868,532.079322 L223.338358,574.461367 L234.069482,612.241263 L240.212383,713.233218 L240.212383,829.051365 L240.212383,941.001114 L229.423774,1005.34172 L229.423774,1035.89675 L252.828647,1035.89675 Z" id="front" stroke="#5F584E" stroke-width="4" fill="#A2998C"></path>
                <g id="front-moss">
                    <use fill="#3D4D21" xlink:href="#path-4"></use>
                    <use fill-opacity="0.59" fill="url(#linearGradient-3)" xlink:href="#path-4"></use>
                </g>
            </g>
        </g>
    </g>
</svg>