<?xml version="1.0" encoding="UTF-8"?>
<svg width="154px" height="45px" viewBox="0 0 154 45" version="1.1" xmlns="http://www.w3.org/2000/svg" xmlns:xlink="http://www.w3.org/1999/xlink">
    <title>branch</title>
    <g id="Cedar" stroke="none" stroke-width="1" fill="none" fill-rule="evenodd" stroke-linecap="round">
        <g id="Drafts" transform="translate(-4044.000000, -1312.000000)">
            <g id="branch" transform="translate(4047.000000, 1315.000000)">
                <path d="M0,6 C55.915029,11.1451129 90.3937863,11.2647245 103.436272,6.35883469" stroke="#4A2521" stroke-width="6"></path>
                <path d="M105.703479,35.1942002 L143.703479,6.19420017 M137.703479,7.19420017 L132.703479,4.19420017 M131.703479,12.1942002 L126.703479,7.19420017 M126.703479,16.1942002 L120.703479,10.1942002 M121.703479,19.1942002 L115.703479,13.1942002 M116.703479,22.1942002 L111.703479,18.1942002 M112.703479,26.1942002 L107.703479,24.1942002 M120.703479,35.1942002 L117.703479,30.1942002 M127.703479,31.1942002 L121.703479,25.1942002 M136.703479,22.1942002 L131.703479,17.1942002 M132.703479,26.1942002 L127.703479,21.1942002 M144.703479,14.1942002 L142.703479,10.1942002 M140.703479,18.1942002 L135.703479,14.1942002" id="Combined-Shape" stroke="#195D21" stroke-width="5" transform="translate(125.203479, 19.694200) scale(1, -1) rotate(11.000000) translate(-125.203479, -19.694200) "></path>
            </g>
        </g>
    </g>
</svg>