<?xml version="1.0" encoding="UTF-8"?>
<svg width="420px" height="310px" viewBox="0 0 420 310" version="1.1" xmlns="http://www.w3.org/2000/svg" xmlns:xlink="http://www.w3.org/1999/xlink">
    <title>Jay</title>
    <g id="Steller's-Jay" stroke="none" stroke-width="1" fill="none" fill-rule="evenodd">
        <g id="Artboard" transform="translate(-566.000000, -47.000000)">
            <g id="Jay" transform="translate(566.000000, 50.000000)">
                <g id="legs" transform="translate(189.526936, 233.067928)" stroke="#FFFFFF">
                    <g id="back-leg" transform="translate(0.000000, 6.000000)">
                        <polygon id="leg" stroke-width="4" fill="#070707" points="1.558594 6 17.4648093 27.5 23.2874573 39.8954828 28.3553265 45.5911333 39 44.6241715 34 38.5769403 24.1749772 22.0008883 10.058594 6"></polygon>
                        <polygon id="Path-2" stroke-width="3" fill="#000309" points="0 0 -4.88813988e-17 4.23917657 0 7.92967771 5.19491215 9 11.4968643 9 15 6.93882752 16.0265159 3.02064244"></polygon>
                        <g id="claws" transform="translate(3.000000, 43.000000)" fill="#000000" stroke-width="3">
                            <path d="M42.9014681,-1.42108547e-14 L50.8963583,3.89527645 L56.5438626,10.3122458 L60,20.6244916 L55.0747791,20 L48.9980643,8 L41.560224,5.09541105 L31.2563571,4.095 L36,8 L39.5879303,11.8201697 L43.0132579,16 L41.9211129,20 L33.754555,11.8201697 L30.1696868,8 L25.8643571,4.488 L13.9323952,6.6119634 L10.0234724,8.99553475 L6.35951114,13.6921791 C3.94977745,18.7411217 2.28247506,21.5103954 1.35760395,22 C0.432732848,22.4896046 0.646864864,20.4896046 2,16 L2,16 L3.32522094,11.3234614 L7.50364166,3.89527645 L15.4985319,-2.48689958e-14 L29.2,1.51058425 L42.9014681,-1.42108547e-14 Z" id="Combined-Shape"></path>
                        </g>
                    </g>
                    <g id="front-leg" transform="translate(47.000000, 0.000000)" stroke-width="3">
                        <polygon id="leg" fill="#070707" transform="translate(25.140239, 22.571718) rotate(-1.000000) translate(-25.140239, -22.571718) " points="1.0447557 1.44469143 15.9190194 15.5077802 36.335131 36.9836638 37.6754731 43.4310623 49.2357229 44.159704 44.1624301 30.6364928 34.5039423 22.6418637 25.1384048 14.4306548 8.16772949 0.983731623"></polygon>
                        <g id="claws" transform="translate(25.558594, 38.000888)" fill="#000000">
                            <path d="M14.3987944,0.639150354 C29.1963941,3.12763562 37.0759062,4.58298186 38.0373308,5.00518906 C38.9987554,5.42739627 40.6930281,6.45465082 43.1201491,8.08695272 L45.4346479,16.4498389 L38.0373308,9.5 L26.5630916,7.19054494 C20.6669834,7.84173091 16.9738993,7.73718064 15.4838394,6.87689415 C15.3868918,6.82092143 15.2971883,6.76476187 15.2147289,6.70841545 L14.2895582,8.46543474 L9.74532035,12.328952 L4.38953556,21.8311841 L8.24850379,28 L1.76229593,24.3697539 L-0.00150532323,18.4518595 L5.9677015,9.09079014 L14.2895582,0.999111749 L14.7464947,1.34015035 L14.3987944,0.639150354 Z" id="Combined-Shape"></path>
                        </g>
                        <polygon id="Path-2" fill="#000102" transform="translate(10.013258, 6.000000) rotate(-13.000000) translate(-10.013258, -6.000000) " points="3.39017096 2 2 5.23917657 2 8.92967771 7.19491215 10 13.4968643 10 17 7.93882752 18.0265159 4.02064244"></polygon>
                    </g>
                </g>
                <g id="body" transform="translate(91.814393, 116.421636)">
                    <polygon stroke="#FFFFFF" stroke-width="3" fill="#10357F" points="240.519722 52.5783642 220.996376 74.0647969 195.953814 101.198081 166.404561 116.924813 135.500973 125.713146 101.312167 125.713146 70.5644874 116.924813 42.8047081 101.198081 10.9110295 89.1457551 0 89.1457551 7.34284165 70.8830413 50.2025336 52.5783642 110.290482 28.9605929 152.694545 11.8052538 175.185607 1"></polygon>
                    <path d="M240.519722,50.6870358 C242.532853,51.5590353 240.40987,52.1792276 234.150772,52.5476128 C227.891674,52.915998 219.303035,52.9262485 208.384854,52.5783642 L164.240273,41.9844364 L134.905422,27.944155 L125.460145,23.0409016 C140.381902,17.1000129 151.49322,12.5115048 158.794098,9.27537727 C166.094976,6.03924977 171.924568,2.94745735 176.282876,0 L240.519722,50.6870358 Z" id="upper-back" fill="#111010"></path>
                </g>
                <g id="tail-feathers" transform="translate(0.827573, 180.568450)" fill="#10357F" stroke="#FFFFFF" stroke-width="3">
                    <path d="M97.2805687,5.64890255 L103.673606,13.9903054 L10.8214266,73.3890833 L5.69694068,67.455157 C5.27699067,66.9072215 5.11889203,66.2409407 5.20276477,65.6066562 C5.28435368,64.9896432 5.59491569,64.4029077 6.11615098,63.9848416 L6.11615098,63.9848416 L97.2805687,5.64890255 Z" id="Rectangle" transform="translate(53.857493, 39.642673) rotate(-3.000000) translate(-53.857493, -39.642673) "></path>
                    <path d="M102.870666,12.3366388 L117.286667,14.8785687 L109.93239,20.2504886 L17.291276,79.5142449 C16.7443134,79.8641442 16.1089387,79.9755263 15.51156,79.8705952 C14.9141814,79.765664 14.3547987,79.4444196 13.9598201,78.9290659 L13.9598201,78.9290659 L12.0826253,76.4797704 C11.2914607,75.4474876 10.9936109,74.1922482 11.1516229,72.9972883 C11.3096349,71.8023284 11.9235088,70.667648 12.9557915,69.8764834 L12.9557915,69.8764834 L102.870666,12.3366388 Z" id="Rectangle" transform="translate(63.897335, 46.757853) rotate(-10.000000) translate(-63.897335, -46.757853) "></path>
                </g>
                <g id="wing" transform="translate(66.077843, 120.852539)" fill="#10357F" stroke="#FFFFFF" stroke-width="3">
                    <path d="M184.530648,4.8444742 L162.363755,4.8444742 L145.996411,0 L117.276461,4.8444742 L77.6052241,21.9850017 L7.72671909,54.5469807 L0,63.3712323 L0,71.2017001 L13.003293,71.2017001 L60.7976178,66.7147727 L139.989624,71.2017001 L180.710868,77.8303299 L223.039978,63.3712323 L230.889081,58.2437029 C232.742529,57.0329133 234.011365,55.1081975 234.39365,52.9275689 L235.138416,48.6792885 C235.199533,48.3306646 235.071811,47.9757042 234.80258,47.745946 L184.530648,4.8444742 L184.530648,4.8444742 Z"></path>
                </g>
                <g id="head" transform="translate(235.000000, 0.000000)">
                    <path d="M114.115331,-2.18278728e-11 L116.081256,5 L125.33584,35.8150744 L131.34259,46.3925414 L135.354522,62.2075578 L138.893027,78.3405253 L138.893027,85.534989 L131.34259,111.536723 L121.932361,126.380956 L116.5,138.392817 C111.990908,144.553897 108.456928,149.703798 105.898059,153.84252 C103.33919,157.981242 100.484542,163.118217 97.3341146,169.253445 L81.4940551,170.037 L57.1209861,171.843716 L44.3675581,170.548581 L27.2258178,169.253445 L18.1515801,166.062543 L9.35928612,158.418817 L5.88317238,154.924445 L0.373055053,144.947196 L1.797542,134.570987 L9.35928612,128.07728 L37.0680551,112.816 L45.0227104,107.25771 L70.452545,62.7585064 L73.7383819,46.7518821 C73.7871521,46.5143032 73.8787282,46.2875761 74.0086391,46.0827704 L81.0618204,34.963371 C81.0744724,34.943425 81.0878271,34.9239335 81.1018594,34.9049333 L86.2577863,27.9236236 L94.9371688,10.6279487 L98.0689887,13.2795983 L101.143085,7.11447445 L103.58103,10.6279487 L108.941071,5 L114.115331,-2.18278728e-11 Z" id="Combined-Shape" stroke="#FFFFFF" stroke-width="3" fill="#000000"></path>
                    <g id="Beak" transform="translate(129.007853, 83.004000)">
                        <g id="upper-beak-2" transform="translate(3.642053, 0.232513)">
                            <path d="M4.37361659,2 L16.4538018,4.32852124 L35.9543665,8.94909011 C36.0986139,8.98326682 36.242215,9.02011543 36.3850966,9.05961504 C47.3725866,12.097108 51.3304754,13.589046 48.2587629,13.5354291 C45.1670451,13.481463 39.2831642,13.3787594 30.6071201,13.2273185 L10.187511,13.2273185 L2,13.2273185 L4.37361659,2 Z" id="upper-beak" stroke="#FFFFFF" stroke-width="3" fill="#060404" transform="translate(25.632722, 7.768412) rotate(-1.000000) translate(-25.632722, -7.768412) "></path>
                            <polygon id="Path-7" fill="#000000" points="4.7503672 0.881462963 5.52451412 4.08066816 3.92293301 12.1024747 0.814203305 12.1024747 3.03612054 0.579333301"></polygon>
                        </g>
                        <g id="lower-beak-2" transform="translate(0.000000, 11.511212)">
                            <polygon id="lower-beak" stroke="#FFFFFF" stroke-width="3" fill="#060404" points="6.00835823 3 20.930193 3.77049104 47.3091231 4.93196108 50.3617169 4.93196108 49.07511 6.51318775 29.4042658 10.1984994 2 15.391078 3.16676579 3"></polygon>
                            <polygon id="Path-7" fill="#000000" points="4.3523213 1.49562158 4.59216135 4.11289682 3.75802464 13.5600596 0.443654569 14.105843 1.67817395 0.300633514"></polygon>
                        </g>
                    </g>
                    <ellipse id="eye" stroke="#FFFFFF" stroke-width="2" cx="116.5" cy="77.5" rx="4.5" ry="3.5"></ellipse>
                    <path d="M111.378757,64.4247889 L114.628523,64.4247889 C114.714468,64.4247889 114.800054,64.4358685 114.883165,64.4577537 L121.090541,66.092297 C121.969021,66.3236206 122.581256,67.1179421 122.581256,68.0263676 L122.581256,69.3531264 C122.581256,69.9054111 122.133541,70.3531264 121.581256,70.3531264 C121.440327,70.3531264 121.30099,70.3233386 121.172379,70.265716 L116.5,68.1723022 L116.5,68.1723022 L112.346804,67.0858092 C112.168806,67.0392443 112.007105,66.9444748 111.879498,66.811931 L110.82794,65.7196974 C110.535062,65.4154898 110.544246,64.9314558 110.848454,64.6385772 C110.990922,64.501415 111.180993,64.4247889 111.378757,64.4247889 Z" id="brow-patch" fill="#FFFFFF" transform="translate(116.081256, 67.660869) rotate(-16.000000) translate(-116.081256, -67.660869) "></path>
                    <polygon id="Path" fill="#10357F" points="123.137031 52.0305226 125.86227 58.2672549 127.818491 67.6850849 129.394208 73.4941424 129.394208 75.0309479 130.98573 75.8776603 133.110377 75.0309479 133.110377 73.4941424 132.007853 68.5782445 128.797703 59.5560382 126.74317 52.717017 125.068027 50.9518437 123.137031 49.5236056"></polygon>
                </g>
            </g>
        </g>
    </g>
</svg>