<?xml version="1.0" encoding="UTF-8"?>
<svg width="450px" height="971px" viewBox="0 0 450 971" version="1.1" xmlns="http://www.w3.org/2000/svg" xmlns:xlink="http://www.w3.org/1999/xlink">
    <title>cedar</title>
    <g id="Cedar" stroke="none" stroke-width="1" fill="none" fill-rule="evenodd">
        <g id="cedar" transform="translate(3.000000, 3.000000)">
            <path d="M260,838 L282,917 C295.674195,920.15233 305.674195,923.485664 312,927 C321.488708,932.271504 334.571397,951.714364 332,958 C330.285736,962.190424 317.952402,960.857091 295,954 L278,958 L251,961 L199,952 L161,957 L110,965 L75,963 L63,951 L113,915 L140,853 L153,801 L161,725 L183,517 L208,123 L215,13 L225,36 L237,160 L237,686 L260,838 Z" stroke="#4A2521" stroke-width="4" fill="#623630"></path>
            <g id="bark" transform="translate(84.000000, 46.000000)" stroke="#4A2521" stroke-width="2">
                <polyline id="Path-50" points="249 908 195 882 170 805 159 677"></polyline>
                <polyline id="Path-52" points="204 908 185 889 155 783 155 644"></polyline>
                <polyline id="Path-53" points="162 913 146 783 146 645 154 464"></polyline>
                <polyline id="Path-54" points="139 908 140 750 140 547 154 412"></polyline>
                <polyline id="Path-55" points="116 905 131 750 136 481 154 389"></polyline>
                <polyline id="Path-56" points="93 908 120 683 139 341 154 268"></polyline>
                <polyline id="Path-57" points="61 913 107 720 135 315 154 195"></polyline>
                <polyline id="Path-58" points="27 918 85 741 128 252 154 144"></polyline>
                <line x1="115" y1="236" x2="150" y2="77" id="Path-59"></line>
                <line x1="123" y1="103" x2="143" y2="0" id="Path-60"></line>
                <polyline id="Path-61" points="0 916 23 891 55 833"></polyline>
            </g>
            <g id="branches" stroke-linecap="round">
                <g id="branch" transform="translate(235.000000, 663.000000)">
                    <path d="M0,15 C17.0961959,29.0044976 37.7628626,39.0044976 62,45 C86.2371374,50.9955024 124.903804,53.6621691 178,53" id="Path-62" stroke="#4A2521" stroke-width="6"></path>
                    <g id="leafs" transform="translate(14.000000, 0.000000)" stroke="#195D21" stroke-width="5">
                        <path d="M40,39 L78,10 M72,11 L67,8 M66,16 L61,11 M61,20 L55,14 M56,23 L50,17 M51,26 L46,22 M47,30 L42,28 M55,39 L52,34 M62,35 L56,29 M71,26 L66,21 M67,30 L62,25 M79,18 L77,14 M75,22 L70,18" id="Combined-Shape"></path>
                        <path d="M77,40 L115,11 M109,12 L104,9 M103,17 L98,12 M98,21 L92,15 M93,24 L87,18 M88,27 L83,23 M84,31 L79,29 M92,40 L89,35 M99,36 L93,30 M108,27 L103,22 M104,31 L99,26 M116,19 L114,15 M112,23 L107,19" id="Combined-Shape" transform="translate(96.500000, 24.500000) rotate(-40.000000) translate(-96.500000, -24.500000) "></path>
                        <path d="M111,47 L149,18 M143,19 L138,16 M137,24 L132,19 M132,28 L126,22 M127,31 L121,25 M122,34 L117,30 M118,38 L113,36 M126,47 L123,42 M133,43 L127,37 M142,34 L137,29 M138,38 L133,33 M150,26 L148,22 M146,30 L141,26" id="Combined-Shape" transform="translate(130.500000, 31.500000) rotate(-10.000000) translate(-130.500000, -31.500000) "></path>
                        <path d="M153,87 L191,58 M185,59 L180,56 M179,64 L174,59 M174,68 L168,62 M169,71 L163,65 M164,74 L159,70 M160,78 L155,76 M168,87 L165,82 M175,83 L169,77 M184,74 L179,69 M180,78 L175,73 M192,66 L190,62 M188,70 L183,66" id="Combined-Shape" transform="translate(172.500000, 71.500000) scale(1, -1) rotate(-10.000000) translate(-172.500000, -71.500000) "></path>
                        <path d="M113,94 L151,65 M145,66 L140,63 M139,71 L134,66 M134,75 L128,69 M129,78 L123,72 M124,81 L119,77 M120,85 L115,83 M128,94 L125,89 M135,90 L129,84 M144,81 L139,76 M140,85 L135,80 M152,73 L150,69 M148,77 L143,73" id="Combined-Shape" transform="translate(132.500000, 78.500000) scale(1, -1) rotate(-35.000000) translate(-132.500000, -78.500000) "></path>
                        <path d="M72,90 L110,61 M104,62 L99,59 M98,67 L93,62 M93,71 L87,65 M88,74 L82,68 M83,77 L78,73 M79,81 L74,79 M87,90 L84,85 M94,86 L88,80 M103,77 L98,72 M99,81 L94,76 M111,69 L109,65 M107,73 L102,69" id="Combined-Shape" transform="translate(91.500000, 74.500000) scale(1, -1) rotate(-21.000000) translate(-91.500000, -74.500000) "></path>
                        <path d="M6,80 L44,51 M38,52 L33,49 M32,57 L27,52 M27,61 L21,55 M22,64 L16,58 M17,67 L12,63 M13,71 L8,69 M21,80 L18,75 M28,76 L22,70 M37,67 L32,62 M33,71 L28,66 M45,59 L43,55 M41,63 L36,59" id="Combined-Shape" transform="translate(25.500000, 64.500000) scale(1, -1) rotate(-39.000000) translate(-25.500000, -64.500000) "></path>
                        <path d="M37,90 L75,61 M69,62 L64,59 M63,67 L58,62 M58,71 L52,65 M53,74 L47,68 M48,77 L43,73 M44,81 L39,79 M52,90 L49,85 M59,86 L53,80 M68,77 L63,72 M64,81 L59,76 M76,69 L74,65 M72,73 L67,69" id="Combined-Shape" transform="translate(56.500000, 74.500000) scale(1, -1) rotate(-39.000000) translate(-56.500000, -74.500000) "></path>
                    </g>
                </g>
                <g id="branch" transform="translate(236.000000, 527.000000)">
                    <path d="M0,15 C17.0961959,29.0044976 37.7628626,39.0044976 62,45 C86.2371374,50.9955024 113.903804,68.3288357 145,97" id="Path-62" stroke="#4A2521" stroke-width="6"></path>
                    <g id="leafs" transform="translate(5.000000, 0.000000)" stroke="#195D21" stroke-width="5">
                        <path d="M30,31 L68,2 M62,3 L57,0 M56,8 L51,3 M51,12 L45,6 M46,15 L40,9 M41,18 L36,14 M37,22 L32,20 M45,31 L42,26 M52,27 L46,21 M61,18 L56,13 M57,22 L52,17 M69,10 L67,6 M65,14 L60,10" id="Combined-Shape"></path>
                        <path d="M67,43 L105,14 M99,15 L94,12 M93,20 L88,15 M88,24 L82,18 M83,27 L77,21 M78,30 L73,26 M74,34 L69,32 M82,43 L79,38 M89,39 L83,33 M98,30 L93,25 M94,34 L89,29 M106,22 L104,18 M102,26 L97,22" id="Combined-Shape" transform="translate(86.500000, 27.500000) rotate(-40.000000) translate(-86.500000, -27.500000) "></path>
                        <path d="M98,59 L136,30 M130,31 L125,28 M124,36 L119,31 M119,40 L113,34 M114,43 L108,37 M109,46 L104,42 M105,50 L100,48 M113,59 L110,54 M120,55 L114,49 M129,46 L124,41 M125,50 L120,45 M137,38 L135,34 M133,42 L128,38" id="Combined-Shape" transform="translate(117.500000, 43.500000) rotate(-10.000000) translate(-117.500000, -43.500000) "></path>
                        <path d="M125,87 L163,58 M157,59 L152,56 M151,64 L146,59 M146,68 L140,62 M141,71 L135,65 M136,74 L131,70 M132,78 L127,76 M140,87 L137,82 M147,83 L141,77 M156,74 L151,69 M152,78 L147,73 M164,66 L162,62 M160,70 L155,66" id="Combined-Shape" transform="translate(144.500000, 71.500000) scale(1, -1) rotate(47.000000) translate(-144.500000, -71.500000) "></path>
                        <path d="M111,124 L149,95 M143,96 L138,93 M137,101 L132,96 M132,105 L126,99 M127,108 L121,102 M122,111 L117,107 M118,115 L113,113 M126,124 L123,119 M133,120 L127,114 M142,111 L137,106 M138,115 L133,110 M150,103 L148,99 M146,107 L141,103" id="Combined-Shape" transform="translate(130.500000, 108.500000) scale(1, -1) rotate(-35.000000) translate(-130.500000, -108.500000) "></path>
                        <path d="M71,107 L109,78 M103,79 L98,76 M97,84 L92,79 M92,88 L86,82 M87,91 L81,85 M82,94 L77,90 M78,98 L73,96 M86,107 L83,102 M93,103 L87,97 M102,94 L97,89 M98,98 L93,93 M110,86 L108,82 M106,90 L101,86" id="Combined-Shape" transform="translate(90.500000, 91.500000) scale(1, -1) rotate(-71.000000) translate(-90.500000, -91.500000) "></path>
                        <path d="M5,78 L43,49 M37,50 L32,47 M31,55 L26,50 M26,59 L20,53 M21,62 L15,56 M16,65 L11,61 M12,69 L7,67 M20,78 L17,73 M27,74 L21,68 M36,65 L31,60 M32,69 L27,64 M44,57 L42,53 M40,61 L35,57" id="Combined-Shape" transform="translate(24.500000, 62.500000) scale(1, -1) rotate(-51.000000) translate(-24.500000, -62.500000) "></path>
                        <path d="M40.2961031,87.9877435 L76.2961031,59.9877435 M70.643491,60.9437086 L65.643491,57.9437086 M65.3132768,65.3479435 L60.3132768,60.3479435 M59.7798293,69.3260913 L53.7798293,63.3260913 M55.0789354,71.9531803 L49.0789354,65.9531803 M50.4144401,75.3013959 L45.4144401,71.3013959 M46.6385178,78.9642717 L41.6385178,76.9642717 M53.8724631,87.775369 L50.8724631,82.775369 M61.258085,83.3907548 L55.258085,77.3907548 M69.9381344,75.5268773 L64.9381344,70.5268773 M66.0143865,78.7832867 L61.0143865,73.7832867 M76.8410379,67.0336793 L74.8410379,63.0336793 M73.3993966,70.7525745 L68.3993966,66.7525745" id="Combined-Shape" transform="translate(58.568570, 72.965726) scale(1, -1) rotate(-44.000000) translate(-58.568570, -72.965726) "></path>
                    </g>
                </g>
                <g id="branch" transform="translate(238.000000, 376.000000)">
                    <path d="M0,25 C15.7628626,33.6711643 35.7628626,41.0044976 60,47 C84.2371374,52.9955024 112.903804,59.9955024 146,68" id="Path-62" stroke="#4A2521" stroke-width="6"></path>
                    <g id="leafs" transform="translate(3.000000, 0.000000)" stroke="#195D21" stroke-width="5">
                        <path d="M31,35 L69,6 M63,7 L58,4 M57,12 L52,7 M52,16 L46,10 M47,19 L41,13 M42,22 L37,18 M38,26 L33,24 M46,35 L43,30 M53,31 L47,25 M62,22 L57,17 M58,26 L53,21 M70,14 L68,10 M66,18 L61,14" id="Combined-Shape"></path>
                        <path d="M68,40 L106,11 M100,12 L95,9 M94,17 L89,12 M89,21 L83,15 M84,24 L78,18 M79,27 L74,23 M75,31 L70,29 M83,40 L80,35 M90,36 L84,30 M99,27 L94,22 M95,31 L90,26 M107,19 L105,15 M103,23 L98,19" id="Combined-Shape" transform="translate(87.500000, 24.500000) rotate(-40.000000) translate(-87.500000, -24.500000) "></path>
                        <path d="M106,52 L144,23 M138,24 L133,21 M132,29 L127,24 M127,33 L121,27 M122,36 L116,30 M117,39 L112,35 M113,43 L108,41 M121,52 L118,47 M128,48 L122,42 M137,39 L132,34 M133,43 L128,38 M145,31 L143,27 M141,35 L136,31" id="Combined-Shape" transform="translate(125.500000, 36.500000) rotate(-10.000000) translate(-125.500000, -36.500000) "></path>
                        <path d="M122,109 L160,80 M154,81 L149,78 M148,86 L143,81 M143,90 L137,84 M138,93 L132,87 M133,96 L128,92 M129,100 L124,98 M137,109 L134,104 M144,105 L138,99 M153,96 L148,91 M149,100 L144,95 M161,88 L159,84 M157,92 L152,88" id="Combined-Shape" transform="translate(141.500000, 93.500000) scale(1, -1) rotate(-35.000000) translate(-141.500000, -93.500000) "></path>
                        <path d="M78,102 L116,73 M110,74 L105,71 M104,79 L99,74 M99,83 L93,77 M94,86 L88,80 M89,89 L84,85 M85,93 L80,91 M93,102 L90,97 M100,98 L94,92 M109,89 L104,84 M105,93 L100,88 M117,81 L115,77 M113,85 L108,81" id="Combined-Shape" transform="translate(97.500000, 86.500000) scale(1, -1) rotate(-71.000000) translate(-97.500000, -86.500000) "></path>
                        <path d="M5,81 L43,52 M37,53 L32,50 M31,58 L26,53 M26,62 L20,56 M21,65 L15,59 M16,68 L11,64 M12,72 L7,70 M20,81 L17,76 M27,77 L21,71 M36,68 L31,63 M32,72 L27,67 M44,60 L42,56 M40,64 L35,60" id="Combined-Shape" transform="translate(24.500000, 65.500000) scale(1, -1) rotate(-51.000000) translate(-24.500000, -65.500000) "></path>
                        <path d="M40.2961031,89.9877435 L76.2961031,61.9877435 M70.643491,62.9437086 L65.643491,59.9437086 M65.3132768,67.3479435 L60.3132768,62.3479435 M59.7798293,71.3260913 L53.7798293,65.3260913 M55.0789354,73.9531803 L49.0789354,67.9531803 M50.4144401,77.3013959 L45.4144401,73.3013959 M46.6385178,80.9642717 L41.6385178,78.9642717 M53.8724631,89.775369 L50.8724631,84.775369 M61.258085,85.3907548 L55.258085,79.3907548 M69.9381344,77.5268773 L64.9381344,72.5268773 M66.0143865,80.7832867 L61.0143865,75.7832867 M76.8410379,69.0336793 L74.8410379,65.0336793 M73.3993966,72.7525745 L68.3993966,68.7525745" id="Combined-Shape" transform="translate(58.568570, 74.965726) scale(1, -1) rotate(-57.000000) translate(-58.568570, -74.965726) "></path>
                    </g>
                </g>
                <g id="branch" transform="translate(220.000000, 211.000000)">
                    <path d="M0,0 C25.7628626,43.3378309 50.7628626,68.0044976 75,74 C99.2371374,79.9955024 122.237137,103.328836 144,144" id="Path-62" stroke="#4A2521" stroke-width="6"></path>
                    <g id="leafs" transform="translate(11.000000, 10.000000)" stroke="#195D21" stroke-width="5">
                        <path d="M22,31 L60,2 M54,3 L49,0 M48,8 L43,3 M43,12 L37,6 M38,15 L32,9 M33,18 L28,14 M29,22 L24,20 M37,31 L34,26 M44,27 L38,21 M53,18 L48,13 M49,22 L44,17 M61,10 L59,6 M57,14 L52,10" id="Combined-Shape"></path>
                        <path d="M58,55 L96,26 M90,27 L85,24 M84,32 L79,27 M79,36 L73,30 M74,39 L68,33 M69,42 L64,38 M65,46 L60,44 M73,55 L70,50 M80,51 L74,45 M89,42 L84,37 M85,46 L80,41 M97,34 L95,30 M93,38 L88,34" id="Combined-Shape" transform="translate(77.500000, 39.500000) rotate(-40.000000) translate(-77.500000, -39.500000) "></path>
                        <path d="M90,74 L128,45 M122,46 L117,43 M116,51 L111,46 M111,55 L105,49 M106,58 L100,52 M101,61 L96,57 M97,65 L92,63 M105,74 L102,69 M112,70 L106,64 M121,61 L116,56 M117,65 L112,60 M129,53 L127,49 M125,57 L120,53" id="Combined-Shape" transform="translate(109.500000, 58.500000) rotate(-10.000000) translate(-109.500000, -58.500000) "></path>
                        <path d="M127,125 L165,96 M159,97 L154,94 M153,102 L148,97 M148,106 L142,100 M143,109 L137,103 M138,112 L133,108 M134,116 L129,114 M142,125 L139,120 M149,121 L143,115 M158,112 L153,107 M154,116 L149,111 M166,104 L164,100 M162,108 L157,104" id="Combined-Shape" transform="translate(146.500000, 109.500000) scale(1, -1) rotate(100.000000) translate(-146.500000, -109.500000) "></path>
                        <path d="M70,128 L108,99 M102,100 L97,97 M96,105 L91,100 M91,109 L85,103 M86,112 L80,106 M81,115 L76,111 M77,119 L72,117 M85,128 L82,123 M92,124 L86,118 M101,115 L96,110 M97,119 L92,114 M109,107 L107,103 M105,111 L100,107" id="Combined-Shape" transform="translate(89.500000, 112.500000) scale(1, -1) rotate(-71.000000) translate(-89.500000, -112.500000) "></path>
                        <path d="M4,86 L42,57 M36,58 L31,55 M30,63 L25,58 M25,67 L19,61 M20,70 L14,64 M15,73 L10,69 M11,77 L6,75 M19,86 L16,81 M26,82 L20,76 M35,73 L30,68 M31,77 L26,72 M43,65 L41,61 M39,69 L34,65" id="Combined-Shape" transform="translate(23.500000, 70.500000) scale(1, -1) rotate(-63.000000) translate(-23.500000, -70.500000) "></path>
                        <path d="M41.2961031,104.987743 L77.2961031,76.9877435 M71.643491,77.9437086 L66.643491,74.9437086 M66.3132768,82.3479435 L61.3132768,77.3479435 M60.7798293,86.3260913 L54.7798293,80.3260913 M56.0789354,88.9531803 L50.0789354,82.9531803 M51.4144401,92.3013959 L46.4144401,88.3013959 M47.6385178,95.9642717 L42.6385178,93.9642717 M54.8724631,104.775369 L51.8724631,99.775369 M62.258085,100.390755 L56.258085,94.3907548 M70.9381344,92.5268773 L65.9381344,87.5268773 M67.0143865,95.7832867 L62.0143865,90.7832867 M77.8410379,84.0336793 L75.8410379,80.0336793 M74.3993966,87.7525745 L69.3993966,83.7525745" id="Combined-Shape" transform="translate(59.568570, 89.965726) scale(1, -1) rotate(-57.000000) translate(-59.568570, -89.965726) "></path>
                    </g>
                </g>
                <g id="branch" transform="translate(228.000000, 5.000000)">
                    <path d="M2,106 C9.76286259,122.004498 25.7628626,133.004498 50,139 C74.2371374,144.995502 95.2371374,147.328836 113,146" id="Path-62" stroke="#4A2521" stroke-width="6"></path>
                    <g id="leafs" stroke="#195D21" stroke-width="5">
                        <path d="M20,121 L58,92 M52,93 L47,90 M46,98 L41,93 M41,102 L35,96 M36,105 L30,99 M31,108 L26,104 M27,112 L22,110 M35,121 L32,116 M42,117 L36,111 M51,108 L46,103 M47,112 L42,107 M59,100 L57,96 M55,104 L50,100" id="Combined-Shape"></path>
                        <path d="M8,79 L46,50 M40,51 L35,48 M34,56 L29,51 M29,60 L23,54 M24,63 L18,57 M19,66 L14,62 M15,70 L10,68 M23,79 L20,74 M30,75 L24,69 M39,66 L34,61 M35,70 L30,65 M47,58 L45,54 M43,62 L38,58" id="Combined-Shape" transform="translate(27.500000, 63.500000) rotate(35.000000) translate(-27.500000, -63.500000) "></path>
                        <path d="M0,31 L38,2 M32,3 L27,0 M26,8 L21,3 M21,12 L15,6 M16,15 L10,9 M11,18 L6,14 M7,22 L2,20 M15,31 L12,26 M22,27 L16,21 M31,18 L26,13 M27,22 L22,17 M39,10 L37,6 M35,14 L30,10" id="Combined-Shape"></path>
                        <path d="M63,133 L101,104 M95,105 L90,102 M89,110 L84,105 M84,114 L78,108 M79,117 L73,111 M74,120 L69,116 M70,124 L65,122 M78,133 L75,128 M85,129 L79,123 M94,120 L89,115 M90,124 L85,119 M102,112 L100,108 M98,116 L93,112" id="Combined-Shape" transform="translate(82.500000, 117.500000) rotate(-40.000000) translate(-82.500000, -117.500000) "></path>
                        <path d="M15,178 L53,149 M47,150 L42,147 M41,155 L36,150 M36,159 L30,153 M31,162 L25,156 M26,165 L21,161 M22,169 L17,167 M30,178 L27,173 M37,174 L31,168 M46,165 L41,160 M42,169 L37,164 M54,157 L52,153 M50,161 L45,157" id="Combined-Shape" transform="translate(34.500000, 162.500000) scale(1, -1) rotate(-63.000000) translate(-34.500000, -162.500000) "></path>
                        <path d="M96.2961031,187.987743 L132.296103,159.987743 M126.643491,160.943709 L121.643491,157.943709 M121.313277,165.347944 L116.313277,160.347944 M115.779829,169.326091 L109.779829,163.326091 M111.078935,171.95318 L105.078935,165.95318 M106.41444,175.301396 L101.41444,171.301396 M102.638518,178.964272 L97.6385178,176.964272 M109.872463,187.775369 L106.872463,182.775369 M117.258085,183.390755 L111.258085,177.390755 M125.938134,175.526877 L120.938134,170.526877 M122.014386,178.783287 L117.014386,173.783287 M132.841038,167.033679 L130.841038,163.033679 M129.399397,170.752574 L124.399397,166.752574" id="Combined-Shape" transform="translate(114.568570, 172.965726) scale(1, -1) rotate(-33.000000) translate(-114.568570, -172.965726) "></path>
                    </g>
                </g>
                <g id="branch" transform="translate(0.000000, 605.000000)">
                    <path d="M162,103 C113.333333,101 81.6666667,95.3333333 67,86 C52.3333333,76.6666667 35.3333333,57.6666667 16,29" id="Path-65" stroke="#4A2521" stroke-width="6"></path>
                    <path d="M112,144 L150,115 M144,116 L139,113 M138,121 L133,116 M133,125 L127,119 M128,128 L122,122 M123,131 L118,127 M119,135 L114,133 M127,144 L124,139 M134,140 L128,134 M143,131 L138,126 M139,135 L134,130 M151,123 L149,119 M147,127 L142,123" id="Combined-Shape" stroke="#195D21" stroke-width="5" transform="translate(131.500000, 128.500000) scale(1, -1) rotate(-72.000000) translate(-131.500000, -128.500000) "></path>
                    <path d="M71,137 L109,108 M103,109 L98,106 M97,114 L92,109 M92,118 L86,112 M87,121 L81,115 M82,124 L77,120 M78,128 L73,126 M86,137 L83,132 M93,133 L87,127 M102,124 L97,119 M98,128 L93,123 M110,116 L108,112 M106,120 L101,116" id="Combined-Shape" stroke="#195D21" stroke-width="5" transform="translate(90.500000, 121.500000) scale(1, -1) rotate(-72.000000) translate(-90.500000, -121.500000) "></path>
                    <path d="M92,90 L130,61 M124,62 L119,59 M118,67 L113,62 M113,71 L107,65 M108,74 L102,68 M103,77 L98,73 M99,81 L94,79 M107,90 L104,85 M114,86 L108,80 M123,77 L118,72 M119,81 L114,76 M131,69 L129,65 M127,73 L122,69" id="Combined-Shape" stroke="#195D21" stroke-width="5" transform="translate(111.500000, 74.500000) rotate(-76.000000) translate(-111.500000, -74.500000) "></path>
                    <path d="M56,74 L94,45 M88,46 L83,43 M82,51 L77,46 M77,55 L71,49 M72,58 L66,52 M67,61 L62,57 M63,65 L58,63 M71,74 L68,69 M78,70 L72,64 M87,61 L82,56 M83,65 L78,60 M95,53 L93,49 M91,57 L86,53" id="Combined-Shape" stroke="#195D21" stroke-width="5" transform="translate(75.500000, 58.500000) rotate(-6.000000) translate(-75.500000, -58.500000) "></path>
                    <path d="M23,39 L61,10 M55,11 L50,8 M49,16 L44,11 M44,20 L38,14 M39,23 L33,17 M34,26 L29,22 M30,30 L25,28 M38,39 L35,34 M45,35 L39,29 M54,26 L49,21 M50,30 L45,25 M62,18 L60,14 M58,22 L53,18" id="Combined-Shape" stroke="#195D21" stroke-width="5" transform="translate(42.500000, 23.500000) rotate(-28.000000) translate(-42.500000, -23.500000) "></path>
                    <path d="M6,94 L44,65 M38,66 L33,63 M32,71 L27,66 M27,75 L21,69 M22,78 L16,72 M17,81 L12,77 M13,85 L8,83 M21,94 L18,89 M28,90 L22,84 M37,81 L32,76 M33,85 L28,80 M45,73 L43,69 M41,77 L36,73" id="Combined-Shape" stroke="#195D21" stroke-width="5" transform="translate(25.500000, 78.500000) scale(1, -1) rotate(-133.000000) translate(-25.500000, -78.500000) "></path>
                    <path d="M41.7288279,132.749618 L72.7288279,93.7496183 M67.920367,95.0764394 L63.920367,91.0764394 M62.3565336,100.487163 L58.3565336,93.4871629 M58.540771,106.621019 L53.540771,99.6210192 M53.4524659,110.377234 L48.4524659,103.377234 M50.063288,115.547565 L46.063288,109.547565 M47.6376357,121.144481 L43.6376357,118.144481 M53.2354836,132.203523 L50.2354836,125.203523 M59.9658283,127.187234 L54.9658283,120.187234 M66.6827715,113.801954 L62.6827715,106.801954 M63.4725739,120.102322 L59.4725739,113.102322 M72.5546895,103.708897 L70.5546895,97.7088971 M70.0354748,109.058208 L66.0354748,103.058208" id="Combined-Shape" stroke="#195D21" stroke-width="5" transform="translate(57.228828, 111.913029) scale(1, -1) rotate(-72.000000) translate(-57.228828, -111.913029) "></path>
                </g>
                <g id="branch" transform="translate(14.000000, 520.000000)">
                    <path d="M168,78 C128,78.6666667 100.666667,74.3333333 86,65 C71.3333333,55.6666667 52,50.6666667 28,50" id="Path-65" stroke="#4A2521" stroke-width="6"></path>
                    <path d="M118,119 L156,90 M150,91 L145,88 M144,96 L139,91 M139,100 L133,94 M134,103 L128,97 M129,106 L124,102 M125,110 L120,108 M133,119 L130,114 M140,115 L134,109 M149,106 L144,101 M145,110 L140,105 M157,98 L155,94 M153,102 L148,98" id="Combined-Shape" stroke="#195D21" stroke-width="5" transform="translate(137.500000, 103.500000) scale(1, -1) rotate(-72.000000) translate(-137.500000, -103.500000) "></path>
                    <path d="M77,112 L115,83 M109,84 L104,81 M103,89 L98,84 M98,93 L92,87 M93,96 L87,90 M88,99 L83,95 M84,103 L79,101 M92,112 L89,107 M99,108 L93,102 M108,99 L103,94 M104,103 L99,98 M116,91 L114,87 M112,95 L107,91" id="Combined-Shape" stroke="#195D21" stroke-width="5" transform="translate(96.500000, 96.500000) scale(1, -1) rotate(-72.000000) translate(-96.500000, -96.500000) "></path>
                    <path d="M108,65 L146,36 M140,37 L135,34 M134,42 L129,37 M129,46 L123,40 M124,49 L118,43 M119,52 L114,48 M115,56 L110,54 M123,65 L120,60 M130,61 L124,55 M139,52 L134,47 M135,56 L130,51 M147,44 L145,40 M143,48 L138,44" id="Combined-Shape" stroke="#195D21" stroke-width="5" transform="translate(127.500000, 49.500000) rotate(-76.000000) translate(-127.500000, -49.500000) "></path>
                    <path d="M65,52 L103,23 M97,24 L92,21 M91,29 L86,24 M86,33 L80,27 M81,36 L75,30 M76,39 L71,35 M72,43 L67,41 M80,52 L77,47 M87,48 L81,42 M96,39 L91,34 M92,43 L87,38 M104,31 L102,27 M100,35 L95,31" id="Combined-Shape" stroke="#195D21" stroke-width="5" transform="translate(84.500000, 36.500000) rotate(-6.000000) translate(-84.500000, -36.500000) "></path>
                    <path d="M33,40 L71,11 M65,12 L60,9 M59,17 L54,12 M54,21 L48,15 M49,24 L43,18 M44,27 L39,23 M40,31 L35,29 M48,40 L45,35 M55,36 L49,30 M64,27 L59,22 M60,31 L55,26 M72,19 L70,15 M68,23 L63,19" id="Combined-Shape" stroke="#195D21" stroke-width="5" transform="translate(52.500000, 24.500000) rotate(-33.000000) translate(-52.500000, -24.500000) "></path>
                    <path d="M-9.09494702e-13,90 L38,61 M32,62 L27,59 M26,67 L21,62 M21,71 L15,65 M16,74 L10,68 M11,77 L6,73 M7,81 L2,79 M15,90 L12,85 M22,86 L16,80 M31,77 L26,72 M27,81 L22,76 M39,69 L37,65 M35,73 L30,69" id="Combined-Shape" stroke="#195D21" stroke-width="5" transform="translate(19.500000, 74.500000) scale(1, -1) rotate(-79.000000) translate(-19.500000, -74.500000) "></path>
                    <path d="M39.7288279,106.749618 L70.7288279,67.7496183 M65.920367,69.0764394 L61.920367,65.0764394 M60.3565336,74.4871629 L56.3565336,67.4871629 M56.540771,80.6210192 L51.540771,73.6210192 M51.4524659,84.3772342 L46.4524659,77.3772342 M48.063288,89.547565 L44.063288,83.547565 M45.6376357,95.1444805 L41.6376357,92.1444805 M51.2354836,106.203523 L48.2354836,99.203523 M57.9658283,101.187234 L52.9658283,94.1872345 M64.6827715,87.8019541 L60.6827715,80.8019541 M61.4725739,94.1023217 L57.4725739,87.1023217 M70.5546895,77.7088971 L68.5546895,71.7088971 M68.0354748,83.0582081 L64.0354748,77.0582081" id="Combined-Shape" stroke="#195D21" stroke-width="5" transform="translate(55.228828, 85.913029) scale(1, -1) rotate(-72.000000) translate(-55.228828, -85.913029) "></path>
                </g>
                <g id="branch" transform="translate(41.000000, 223.000000)">
                    <path d="M154,105 C108.666667,88.3333333 78.6666667,75.3333333 64,66 C49.3333333,56.6666667 39.6666667,46 35,34" id="Path-65" stroke="#4A2521" stroke-width="6"></path>
                    <path d="M49,114 L87,85 M81,86 L76,83 M75,91 L70,86 M70,95 L64,89 M65,98 L59,92 M60,101 L55,97 M56,105 L51,103 M64,114 L61,109 M71,110 L65,104 M80,101 L75,96 M76,105 L71,100 M88,93 L86,89 M84,97 L79,93" id="Combined-Shape" stroke="#195D21" stroke-width="5" transform="translate(68.500000, 98.500000) scale(1, -1) rotate(-72.000000) translate(-68.500000, -98.500000) "></path>
                    <path d="M102,82 L140,53 M134,54 L129,51 M128,59 L123,54 M123,63 L117,57 M118,66 L112,60 M113,69 L108,65 M109,73 L104,71 M117,82 L114,77 M124,78 L118,72 M133,69 L128,64 M129,73 L124,68 M141,61 L139,57 M137,65 L132,61" id="Combined-Shape" stroke="#195D21" stroke-width="5" transform="translate(121.500000, 66.500000) rotate(1.000000) translate(-121.500000, -66.500000) "></path>
                    <path d="M72,66 L110,37 M104,38 L99,35 M98,43 L93,38 M93,47 L87,41 M88,50 L82,44 M83,53 L78,49 M79,57 L74,55 M87,66 L84,61 M94,62 L88,56 M103,53 L98,48 M99,57 L94,52 M111,45 L109,41 M107,49 L102,45" id="Combined-Shape" stroke="#195D21" stroke-width="5" transform="translate(91.500000, 50.500000) rotate(-6.000000) translate(-91.500000, -50.500000) "></path>
                    <path d="M38,40 L76,11 M70,12 L65,9 M64,17 L59,12 M59,21 L53,15 M54,24 L48,18 M49,27 L44,23 M45,31 L40,29 M53,40 L50,35 M60,36 L54,30 M69,27 L64,22 M65,31 L60,26 M77,19 L75,15 M73,23 L68,19" id="Combined-Shape" stroke="#195D21" stroke-width="5" transform="translate(57.500000, 24.500000) rotate(-33.000000) translate(-57.500000, -24.500000) "></path>
                    <path d="M-2,71 L36,42 M30,43 L25,40 M24,48 L19,43 M19,52 L13,46 M14,55 L8,49 M9,58 L4,54 M5,62 L-9.09050613e-13,60 M13,71 L10,66 M20,67 L14,61 M29,58 L24,53 M25,62 L20,57 M37,50 L35,46 M33,54 L28,50" id="Combined-Shape" stroke="#195D21" stroke-width="5" transform="translate(17.500000, 55.500000) scale(1, -1) rotate(-96.000000) translate(-17.500000, -55.500000) "></path>
                    <path d="M20.7288279,102.749618 L51.7288279,63.7496183 M46.920367,65.0764394 L42.920367,61.0764394 M41.3565336,70.4871629 L37.3565336,63.4871629 M37.540771,76.6210192 L32.540771,69.6210192 M32.4524659,80.3772342 L27.4524659,73.3772342 M29.063288,85.547565 L25.063288,79.547565 M26.6376357,91.1444805 L22.6376357,88.1444805 M32.2354836,102.203523 L29.2354836,95.203523 M38.9658283,97.1872345 L33.9658283,90.1872345 M45.6827715,83.8019541 L41.6827715,76.8019541 M42.4725739,90.1023217 L38.4725739,83.1023217 M51.5546895,73.7088971 L49.5546895,67.7088971 M49.0354748,79.0582081 L45.0354748,73.0582081" id="Combined-Shape" stroke="#195D21" stroke-width="5" transform="translate(36.228828, 81.913029) scale(1, -1) rotate(-72.000000) translate(-36.228828, -81.913029) "></path>
                </g>
                <g id="branch" transform="translate(69.000000, 117.000000)">
                    <path d="M135,40 C115,63.3333333 97.6666667,70.3333333 83,61 C68.3333333,51.6666667 50,49 28,53" id="Path-65" stroke="#4A2521" stroke-width="6"></path>
                    <path d="M69,106 L107,77 M101,78 L96,75 M95,83 L90,78 M90,87 L84,81 M85,90 L79,84 M80,93 L75,89 M76,97 L71,95 M84,106 L81,101 M91,102 L85,96 M100,93 L95,88 M96,97 L91,92 M108,85 L106,81 M104,89 L99,85" id="Combined-Shape" stroke="#195D21" stroke-width="5" transform="translate(88.500000, 90.500000) scale(1, -1) rotate(-72.000000) translate(-88.500000, -90.500000) "></path>
                    <path d="M98,40 L136,11 M130,12 L125,9 M124,17 L119,12 M119,21 L113,15 M114,24 L108,18 M109,27 L104,23 M105,31 L100,29 M113,40 L110,35 M120,36 L114,30 M129,27 L124,22 M125,31 L120,26 M137,19 L135,15 M133,23 L128,19" id="Combined-Shape" stroke="#195D21" stroke-width="5" transform="translate(117.500000, 24.500000) rotate(-63.000000) translate(-117.500000, -24.500000) "></path>
                    <path d="M52,43 L90,14 M84,15 L79,12 M78,20 L73,15 M73,24 L67,18 M68,27 L62,21 M63,30 L58,26 M59,34 L54,32 M67,43 L64,38 M74,39 L68,33 M83,30 L78,25 M79,34 L74,29 M91,22 L89,18 M87,26 L82,22" id="Combined-Shape" stroke="#195D21" stroke-width="5" transform="translate(71.500000, 27.500000) rotate(-49.000000) translate(-71.500000, -27.500000) "></path>
                    <path d="M16,42 L54,13 M48,14 L43,11 M42,19 L37,14 M37,23 L31,17 M32,26 L26,20 M27,29 L22,25 M23,33 L18,31 M31,42 L28,37 M38,38 L32,32 M47,29 L42,24 M43,33 L38,28 M55,21 L53,17 M51,25 L46,21" id="Combined-Shape" stroke="#195D21" stroke-width="5" transform="translate(35.500000, 26.500000) rotate(-33.000000) translate(-35.500000, -26.500000) "></path>
                    <path d="M9.72882788,94.7496183 L40.7288279,55.7496183 M35.920367,57.0764394 L31.920367,53.0764394 M30.3565336,62.4871629 L26.3565336,55.4871629 M26.540771,68.6210192 L21.540771,61.6210192 M21.4524659,72.3772342 L16.4524659,65.3772342 M18.063288,77.547565 L14.063288,71.547565 M15.6376357,83.1444805 L11.6376357,80.1444805 M21.2354836,94.203523 L18.2354836,87.203523 M27.9658283,89.1872345 L22.9658283,82.1872345 M34.6827715,75.8019541 L30.6827715,68.8019541 M31.4725739,82.1023217 L27.4725739,75.1023217 M40.5546895,65.7088971 L38.5546895,59.7088971 M38.0354748,71.0582081 L34.0354748,65.0582081" id="Combined-Shape" stroke="#195D21" stroke-width="5" transform="translate(25.228828, 73.913029) scale(1, -1) rotate(-72.000000) translate(-25.228828, -73.913029) "></path>
                </g>
                <g id="branch" transform="translate(114.000000, 0.000000)">
                    <line x1="97" y1="60" x2="41" y2="47" id="Path-65" stroke="#4A2521" stroke-width="6"></line>
                    <path d="M45,95 L83,66 M77,67 L72,64 M71,72 L66,67 M66,76 L60,70 M61,79 L55,73 M56,82 L51,78 M52,86 L47,84 M60,95 L57,90 M67,91 L61,85 M76,82 L71,77 M72,86 L67,81 M84,74 L82,70 M80,78 L75,74" id="Combined-Shape" stroke="#195D21" stroke-width="5" transform="translate(64.500000, 79.500000) scale(1, -1) rotate(-72.000000) translate(-64.500000, -79.500000) "></path>
                    <path d="M28,39 L66,10 M60,11 L55,8 M54,16 L49,11 M49,20 L43,14 M44,23 L38,17 M39,26 L34,22 M35,30 L30,28 M43,39 L40,34 M50,35 L44,29 M59,26 L54,21 M55,30 L50,25 M67,18 L65,14 M63,22 L58,18" id="Combined-Shape" stroke="#195D21" stroke-width="5" transform="translate(47.500000, 23.500000) rotate(-74.000000) translate(-47.500000, -23.500000) "></path>
                    <path d="M9.72882788,89.7496183 L40.7288279,50.7496183 M35.920367,52.0764394 L31.920367,48.0764394 M30.3565336,57.4871629 L26.3565336,50.4871629 M26.540771,63.6210192 L21.540771,56.6210192 M21.4524659,67.3772342 L16.4524659,60.3772342 M18.063288,72.547565 L14.063288,66.547565 M15.6376357,78.1444805 L11.6376357,75.1444805 M21.2354836,89.203523 L18.2354836,82.203523 M27.9658283,84.1872345 L22.9658283,77.1872345 M34.6827715,70.8019541 L30.6827715,63.8019541 M31.4725739,77.1023217 L27.4725739,70.1023217 M40.5546895,60.7088971 L38.5546895,54.7088971 M38.0354748,66.0582081 L34.0354748,60.0582081" id="Combined-Shape" stroke="#195D21" stroke-width="5" transform="translate(25.228828, 68.913029) scale(1, -1) rotate(-72.000000) translate(-25.228828, -68.913029) "></path>
                </g>
                <g id="branch" transform="translate(13.000000, 433.000000)">
                    <path d="M206,-1.8189894e-12 C198,38 189,60.3333333 179,67 C169,73.6666667 126,78.6666667 50,82" id="Path-65" stroke="#4A2521" stroke-width="6"></path>
                    <path d="M187,77 L225,48 M219,49 L214,46 M213,54 L208,49 M208,58 L202,52 M203,61 L197,55 M198,64 L193,60 M194,68 L189,66 M202,77 L199,72 M209,73 L203,67 M218,64 L213,59 M214,68 L209,63 M226,56 L224,52 M222,60 L217,56" id="Combined-Shape" stroke="#195D21" stroke-width="5" transform="translate(206.500000, 61.500000) scale(1, -1) rotate(-28.000000) translate(-206.500000, -61.500000) "></path>
                    <path d="M154,110 L192,81 M186,82 L181,79 M180,87 L175,82 M175,91 L169,85 M170,94 L164,88 M165,97 L160,93 M161,101 L156,99 M169,110 L166,105 M176,106 L170,100 M185,97 L180,92 M181,101 L176,96 M193,89 L191,85 M189,93 L184,89" id="Combined-Shape" stroke="#195D21" stroke-width="5" transform="translate(173.500000, 94.500000) scale(1, -1) rotate(-22.000000) translate(-173.500000, -94.500000) "></path>
                    <path d="M146,58 L184,29 M178,30 L173,27 M172,35 L167,30 M167,39 L161,33 M162,42 L156,36 M157,45 L152,41 M153,49 L148,47 M161,58 L158,53 M168,54 L162,48 M177,45 L172,40 M173,49 L168,44 M185,37 L183,33 M181,41 L176,37" id="Combined-Shape" stroke="#195D21" stroke-width="5" transform="translate(165.500000, 42.500000) rotate(-76.000000) translate(-165.500000, -42.500000) "></path>
                    <path d="M84,68 L122,39 M116,40 L111,37 M110,45 L105,40 M105,49 L99,43 M100,52 L94,46 M95,55 L90,51 M91,59 L86,57 M99,68 L96,63 M106,64 L100,58 M115,55 L110,50 M111,59 L106,54 M123,47 L121,43 M119,51 L114,47" id="Combined-Shape" stroke="#195D21" stroke-width="5" transform="translate(103.500000, 52.500000) rotate(-81.000000) translate(-103.500000, -52.500000) "></path>
                    <path d="M43,73 L81,44 M75,45 L70,42 M69,50 L64,45 M64,54 L58,48 M59,57 L53,51 M54,60 L49,56 M50,64 L45,62 M58,73 L55,68 M65,69 L59,63 M74,60 L69,55 M70,64 L65,59 M82,52 L80,48 M78,56 L73,52" id="Combined-Shape" stroke="#195D21" stroke-width="5" transform="translate(62.500000, 57.500000) scale(1, -1) rotate(-21.000000) translate(-62.500000, -57.500000) "></path>
                    <path d="M9.72882788,107.749618 L40.7288279,68.7496183 M35.920367,70.0764394 L31.920367,66.0764394 M30.3565336,75.4871629 L26.3565336,68.4871629 M26.540771,81.6210192 L21.540771,74.6210192 M21.4524659,85.3772342 L16.4524659,78.3772342 M18.063288,90.547565 L14.063288,84.547565 M15.6376357,96.1444805 L11.6376357,93.1444805 M21.2354836,107.203523 L18.2354836,100.203523 M27.9658283,102.187234 L22.9658283,95.1872345 M34.6827715,88.8019541 L30.6827715,81.8019541 M31.4725739,95.1023217 L27.4725739,88.1023217 M40.5546895,78.7088971 L38.5546895,72.7088971 M38.0354748,84.0582081 L34.0354748,78.0582081" id="Combined-Shape" stroke="#195D21" stroke-width="5" transform="translate(25.228828, 86.913029) scale(1, -1) rotate(-110.000000) translate(-25.228828, -86.913029) "></path>
                </g>
                <g id="branch" transform="translate(21.000000, 331.000000)">
                    <path d="M172,40.3248774 C154.483221,58.5475801 134.852349,67.4419946 113.107383,67.0081207 C91.3624161,66.5742468 65.9932886,57.2459585 37,39.0232558" id="Path-65" stroke="#4A2521" stroke-width="6"></path>
                    <path d="M141,98 L179,69 M173,70 L168,67 M167,75 L162,70 M162,79 L156,73 M157,82 L151,76 M152,85 L147,81 M148,89 L143,87 M156,98 L153,93 M163,94 L157,88 M172,85 L167,80 M168,89 L163,84 M180,77 L178,73 M176,81 L171,77" id="Combined-Shape" stroke="#195D21" stroke-width="5" transform="translate(160.500000, 82.500000) scale(1, -1) rotate(-28.000000) translate(-160.500000, -82.500000) "></path>
                    <path d="M96,104 L134,75 M128,76 L123,73 M122,81 L117,76 M117,85 L111,79 M112,88 L106,82 M107,91 L102,87 M103,95 L98,93 M111,104 L108,99 M118,100 L112,94 M127,91 L122,86 M123,95 L118,90 M135,83 L133,79 M131,87 L126,83" id="Combined-Shape" stroke="#195D21" stroke-width="5" transform="translate(115.500000, 88.500000) scale(1, -1) rotate(-22.000000) translate(-115.500000, -88.500000) "></path>
                    <path d="M133,39 L171,10 M165,11 L160,8 M159,16 L154,11 M154,20 L148,14 M149,23 L143,17 M144,26 L139,22 M140,30 L135,28 M148,39 L145,34 M155,35 L149,29 M164,26 L159,21 M160,30 L155,25 M172,18 L170,14 M168,22 L163,18" id="Combined-Shape" stroke="#195D21" stroke-width="5" transform="translate(152.500000, 23.500000) rotate(-76.000000) translate(-152.500000, -23.500000) "></path>
                    <path d="M75,52 L113,23 M107,24 L102,21 M101,29 L96,24 M96,33 L90,27 M91,36 L85,30 M86,39 L81,35 M82,43 L77,41 M90,52 L87,47 M97,48 L91,42 M106,39 L101,34 M102,43 L97,38 M114,31 L112,27 M110,35 L105,31" id="Combined-Shape" stroke="#195D21" stroke-width="5" transform="translate(94.500000, 36.500000) rotate(-18.000000) translate(-94.500000, -36.500000) "></path>
                    <path d="M52,97 L90,68 M84,69 L79,66 M78,74 L73,69 M73,78 L67,72 M68,81 L62,75 M63,84 L58,80 M59,88 L54,86 M67,97 L64,92 M74,93 L68,87 M83,84 L78,79 M79,88 L74,83 M91,76 L89,72 M87,80 L82,76" id="Combined-Shape" stroke="#195D21" stroke-width="5" transform="translate(71.500000, 81.500000) scale(1, -1) rotate(-37.000000) translate(-71.500000, -81.500000) "></path>
                    <path d="M10.7288279,85.7496183 L41.7288279,46.7496183 M36.920367,48.0764394 L32.920367,44.0764394 M31.3565336,53.4871629 L27.3565336,46.4871629 M27.540771,59.6210192 L22.540771,52.6210192 M22.4524659,63.3772342 L17.4524659,56.3772342 M19.063288,68.547565 L15.063288,62.547565 M16.6376357,74.1444805 L12.6376357,71.1444805 M22.2354836,85.203523 L19.2354836,78.203523 M28.9658283,80.1872345 L23.9658283,73.1872345 M35.6827715,66.8019541 L31.6827715,59.8019541 M32.4725739,73.1023217 L28.4725739,66.1023217 M41.5546895,56.7088971 L39.5546895,50.7088971 M39.0354748,62.0582081 L35.0354748,56.0582081" id="Combined-Shape" stroke="#195D21" stroke-width="5" transform="translate(26.228828, 64.913029) scale(1, -1) rotate(-62.000000) translate(-26.228828, -64.913029) "></path>
                </g>
            </g>
        </g>
    </g>
</svg>