<?xml version="1.0" encoding="UTF-8"?>
<svg width="157px" height="108px" viewBox="0 0 157 108" version="1.1" xmlns="http://www.w3.org/2000/svg" xmlns:xlink="http://www.w3.org/1999/xlink">
    <title>fern</title>
    <g id="Cedar" stroke="none" stroke-width="1" fill="none" fill-rule="evenodd">
        <g id="Artboard" transform="translate(2.000000, 4.000000)">
            <g id="fern" transform="translate(0.000000, -2.000000)">
                <g id="fern-branch" transform="translate(65.000000, 47.000000) rotate(-13.000000) translate(-65.000000, -47.000000) translate(47.000000, 5.000000)">
                    <line x1="18" y1="0" x2="17.5" y2="83.5" id="Line" stroke="#7A9265" stroke-width="2" stroke-linecap="round"></line>
                    <g id="right" transform="translate(19.000000, 1.000000)" fill="#2A9136" stroke="#207329">
                        <polygon id="Path-49" points="0.14893617 13 3.55271368e-15 17.2307692 0.744680851 19.9230769 9.53191489 23 14 23 4.76595745 15.6923077"></polygon>
                        <polygon id="Path-49" points="0.159574468 21 0 25.532967 0.79787234 28.4175824 10.212766 31.7142857 15 31.7142857 5.10638298 23.8846154"></polygon>
                        <polygon id="Path-49" points="0.170212766 30 0 34.9862637 0.85106383 38.1593407 10.893617 41.7857143 16 41.7857143 5.44680851 33.1730769"></polygon>
                        <polygon id="Path-49" points="0.170212766 39 0 43.9862637 0.85106383 47.1593407 10.893617 50.7857143 16 50.7857143 5.44680851 42.1730769"></polygon>
                        <polygon id="Path-49" points="0.180851064 48 0 52.2307692 0.904255319 54.9230769 11.5744681 58 17 58 5.78723404 50.6923077"></polygon>
                        <polygon id="Path-49" points="0.14893617 56 0 60.6538462 0.744680851 63.6153846 9.53191489 67 14 67 4.76595745 58.9615385"></polygon>
                        <polygon id="Path-49" points="0.127659574 65 0 68.3846154 0.638297872 70.5384615 8.17021277 73 12 73 4.08510638 67.1538462"></polygon>
                        <polygon id="Path-49" points="0.138297872 6 0 9.38461538 0.691489362 11.5384615 8.85106383 14 13 14 4.42553191 8.15384615"></polygon>
                        <polygon id="Path-49" points="0.117021277 72 0 74.9615385 0.585106383 76.8461538 7.4893617 79 11 79 3.74468085 73.8846154"></polygon>
                        <polygon id="Path-49" points="0.106382979 -1.91113151e-15 0 2.96153846 0.531914894 4.84615385 6.80851064 7 10 7 3.40425532 1.88461538"></polygon>
                    </g>
                    <g id="right" transform="translate(8.500000, 39.500000) scale(-1, 1) translate(-8.500000, -39.500000) " fill="#2A9136" stroke="#207329">
                        <polygon id="Path-49" points="0.14893617 13 3.55271368e-15 17.2307692 0.744680851 19.9230769 9.53191489 23 14 23 4.76595745 15.6923077"></polygon>
                        <polygon id="Path-49" points="0.159574468 21 0 25.532967 0.79787234 28.4175824 10.212766 31.7142857 15 31.7142857 5.10638298 23.8846154"></polygon>
                        <polygon id="Path-49" points="0.170212766 30 0 34.9862637 0.85106383 38.1593407 10.893617 41.7857143 16 41.7857143 5.44680851 33.1730769"></polygon>
                        <polygon id="Path-49" points="0.170212766 39 0 43.9862637 0.85106383 47.1593407 10.893617 50.7857143 16 50.7857143 5.44680851 42.1730769"></polygon>
                        <polygon id="Path-49" points="0.180851064 48 0 52.2307692 0.904255319 54.9230769 11.5744681 58 17 58 5.78723404 50.6923077"></polygon>
                        <polygon id="Path-49" points="0.14893617 56 0 60.6538462 0.744680851 63.6153846 9.53191489 67 14 67 4.76595745 58.9615385"></polygon>
                        <polygon id="Path-49" points="0.127659574 65 0 68.3846154 0.638297872 70.5384615 8.17021277 73 12 73 4.08510638 67.1538462"></polygon>
                        <polygon id="Path-49" points="0.138297872 6 0 9.38461538 0.691489362 11.5384615 8.85106383 14 13 14 4.42553191 8.15384615"></polygon>
                        <polygon id="Path-49" points="0.117021277 72 0 74.9615385 0.585106383 76.8461538 7.4893617 79 11 79 3.74468085 73.8846154"></polygon>
                        <polygon id="Path-49" points="0.106382979 -1.91113151e-15 0 2.96153846 0.531914894 4.84615385 6.80851064 7 10 7 3.40425532 1.88461538"></polygon>
                    </g>
                </g>
                <g id="fern-branch" transform="translate(44.079010, 60.041988) rotate(-46.000000) translate(-44.079010, -60.041988) translate(26.079010, 16.541988)">
                    <line x1="18" y1="0" x2="17.929534" y2="86.5532831" id="Line" stroke="#7A9265" stroke-width="2" stroke-linecap="round"></line>
                    <g id="right" transform="translate(19.000000, 1.000000)" fill="#2A9136" stroke="#207329">
                        <polygon id="Path-49" points="0.14893617 13 3.55271368e-15 17.2307692 0.744680851 19.9230769 9.53191489 23 14 23 4.76595745 15.6923077"></polygon>
                        <polygon id="Path-49" points="0.159574468 21 0 25.532967 0.79787234 28.4175824 10.212766 31.7142857 15 31.7142857 5.10638298 23.8846154"></polygon>
                        <polygon id="Path-49" points="0.170212766 30 0 34.9862637 0.85106383 38.1593407 10.893617 41.7857143 16 41.7857143 5.44680851 33.1730769"></polygon>
                        <polygon id="Path-49" points="0.170212766 39 0 43.9862637 0.85106383 47.1593407 10.893617 50.7857143 16 50.7857143 5.44680851 42.1730769"></polygon>
                        <polygon id="Path-49" points="0.180851064 48 0 52.2307692 0.904255319 54.9230769 11.5744681 58 17 58 5.78723404 50.6923077"></polygon>
                        <polygon id="Path-49" points="0.14893617 56 0 60.6538462 0.744680851 63.6153846 9.53191489 67 14 67 4.76595745 58.9615385"></polygon>
                        <polygon id="Path-49" points="0.127659574 65 0 68.3846154 0.638297872 70.5384615 8.17021277 73 12 73 4.08510638 67.1538462"></polygon>
                        <polygon id="Path-49" points="0.138297872 6 0 9.38461538 0.691489362 11.5384615 8.85106383 14 13 14 4.42553191 8.15384615"></polygon>
                        <polygon id="Path-49" points="0.117021277 72 0 74.9615385 0.585106383 76.8461538 7.4893617 79 11 79 3.74468085 73.8846154"></polygon>
                        <polygon id="Path-49" points="0.106382979 -1.91113151e-15 0 2.96153846 0.531914894 4.84615385 6.80851064 7 10 7 3.40425532 1.88461538"></polygon>
                    </g>
                    <g id="left" transform="translate(8.500000, 39.500000) scale(-1, 1) translate(-8.500000, -39.500000) " fill="#2A9136" stroke="#207329">
                        <polygon id="Path-49" points="0.14893617 13 3.55271368e-15 17.2307692 0.744680851 19.9230769 9.53191489 23 14 23 4.76595745 15.6923077"></polygon>
                        <polygon id="Path-49" points="0.159574468 21 0 25.532967 0.79787234 28.4175824 10.212766 31.7142857 15 31.7142857 5.10638298 23.8846154"></polygon>
                        <polygon id="Path-49" points="0.170212766 30 0 34.9862637 0.85106383 38.1593407 10.893617 41.7857143 16 41.7857143 5.44680851 33.1730769"></polygon>
                        <polygon id="Path-49" points="0.170212766 39 0 43.9862637 0.85106383 47.1593407 10.893617 50.7857143 16 50.7857143 5.44680851 42.1730769"></polygon>
                        <polygon id="Path-49" points="0.180851064 48 0 52.2307692 0.904255319 54.9230769 11.5744681 58 17 58 5.78723404 50.6923077"></polygon>
                        <polygon id="Path-49" points="0.14893617 56 0 60.6538462 0.744680851 63.6153846 9.53191489 67 14 67 4.76595745 58.9615385"></polygon>
                        <polygon id="Path-49" points="0.127659574 65 0 68.3846154 0.638297872 70.5384615 8.17021277 73 12 73 4.08510638 67.1538462"></polygon>
                        <polygon id="Path-49" points="0.138297872 6 0 9.38461538 0.691489362 11.5384615 8.85106383 14 13 14 4.42553191 8.15384615"></polygon>
                        <polygon id="Path-49" points="0.117021277 72 0 74.9615385 0.585106383 76.8461538 7.4893617 79 11 79 3.74468085 73.8846154"></polygon>
                        <polygon id="Path-49" points="0.106382979 -1.91113151e-15 0 2.96153846 0.531914894 4.84615385 6.80851064 7 10 7 3.40425532 1.88461538"></polygon>
                    </g>
                </g>
                <g id="fern-branch" transform="translate(92.283264, 47.867161) rotate(21.000000) translate(-92.283264, -47.867161) translate(74.283264, 3.867161)">
                    <line x1="18" y1="1.8189894e-12" x2="16.2470062" y2="87.661001" id="Line" stroke="#7A9265" stroke-width="2" stroke-linecap="round"></line>
                    <g id="right" transform="translate(19.000000, 1.000000)" fill="#2A9136" stroke="#207329">
                        <polygon id="Path-49" points="0.14893617 13 3.55271368e-15 17.2307692 0.744680851 19.9230769 9.53191489 23 14 23 4.76595745 15.6923077"></polygon>
                        <polygon id="Path-49" points="0.159574468 21 0 25.532967 0.79787234 28.4175824 10.212766 31.7142857 15 31.7142857 5.10638298 23.8846154"></polygon>
                        <polygon id="Path-49" points="0.170212766 30 0 34.9862637 0.85106383 38.1593407 10.893617 41.7857143 16 41.7857143 5.44680851 33.1730769"></polygon>
                        <polygon id="Path-49" points="0.170212766 39 0 43.9862637 0.85106383 47.1593407 10.893617 50.7857143 16 50.7857143 5.44680851 42.1730769"></polygon>
                        <polygon id="Path-49" points="0.180851064 48 0 52.2307692 0.904255319 54.9230769 11.5744681 58 17 58 5.78723404 50.6923077"></polygon>
                        <polygon id="Path-49" points="0.14893617 56 0 60.6538462 0.744680851 63.6153846 9.53191489 67 14 67 4.76595745 58.9615385"></polygon>
                        <polygon id="Path-49" points="0.127659574 65 0 68.3846154 0.638297872 70.5384615 8.17021277 73 12 73 4.08510638 67.1538462"></polygon>
                        <polygon id="Path-49" points="0.138297872 6 0 9.38461538 0.691489362 11.5384615 8.85106383 14 13 14 4.42553191 8.15384615"></polygon>
                        <polygon id="Path-49" points="0.117021277 72 0 74.9615385 0.585106383 76.8461538 7.4893617 79 11 79 3.74468085 73.8846154"></polygon>
                        <polygon id="Path-49" points="0.106382979 -1.91113151e-15 0 2.96153846 0.531914894 4.84615385 6.80851064 7 10 7 3.40425532 1.88461538"></polygon>
                    </g>
                    <g id="right" transform="translate(8.500000, 39.500000) scale(-1, 1) translate(-8.500000, -39.500000) " fill="#2A9136" stroke="#207329">
                        <polygon id="Path-49" points="0.14893617 13 3.55271368e-15 17.2307692 0.744680851 19.9230769 9.53191489 23 14 23 4.76595745 15.6923077"></polygon>
                        <polygon id="Path-49" points="0.159574468 21 0 25.532967 0.79787234 28.4175824 10.212766 31.7142857 15 31.7142857 5.10638298 23.8846154"></polygon>
                        <polygon id="Path-49" points="0.170212766 30 0 34.9862637 0.85106383 38.1593407 10.893617 41.7857143 16 41.7857143 5.44680851 33.1730769"></polygon>
                        <polygon id="Path-49" points="0.170212766 39 0 43.9862637 0.85106383 47.1593407 10.893617 50.7857143 16 50.7857143 5.44680851 42.1730769"></polygon>
                        <polygon id="Path-49" points="0.180851064 48 0 52.2307692 0.904255319 54.9230769 11.5744681 58 17 58 5.78723404 50.6923077"></polygon>
                        <polygon id="Path-49" points="0.14893617 56 0 60.6538462 0.744680851 63.6153846 9.53191489 67 14 67 4.76595745 58.9615385"></polygon>
                        <polygon id="Path-49" points="0.127659574 65 0 68.3846154 0.638297872 70.5384615 8.17021277 73 12 73 4.08510638 67.1538462"></polygon>
                        <polygon id="Path-49" points="0.138297872 6 0 9.38461538 0.691489362 11.5384615 8.85106383 14 13 14 4.42553191 8.15384615"></polygon>
                        <polygon id="Path-49" points="0.117021277 72 0 74.9615385 0.585106383 76.8461538 7.4893617 79 11 79 3.74468085 73.8846154"></polygon>
                        <polygon id="Path-49" points="0.106382979 -1.91113151e-15 0 2.96153846 0.531914894 4.84615385 6.80851064 7 10 7 3.40425532 1.88461538"></polygon>
                    </g>
                </g>
                <g id="fern-branch" transform="translate(107.902969, 60.022998) rotate(47.000000) translate(-107.902969, -60.022998) translate(89.902969, 16.522998)">
                    <line x1="18" y1="-3.63797881e-12" x2="17.4346652" y2="86.594623" id="Line" stroke="#7A9265" stroke-width="2" stroke-linecap="round"></line>
                    <g id="right" transform="translate(19.000000, 1.000000)" fill="#2A9136" stroke="#207329">
                        <polygon id="Path-49" points="0.14893617 13 3.55271368e-15 17.2307692 0.744680851 19.9230769 9.53191489 23 14 23 4.76595745 15.6923077"></polygon>
                        <polygon id="Path-49" points="0.159574468 21 0 25.532967 0.79787234 28.4175824 10.212766 31.7142857 15 31.7142857 5.10638298 23.8846154"></polygon>
                        <polygon id="Path-49" points="0.170212766 30 0 34.9862637 0.85106383 38.1593407 10.893617 41.7857143 16 41.7857143 5.44680851 33.1730769"></polygon>
                        <polygon id="Path-49" points="0.170212766 39 0 43.9862637 0.85106383 47.1593407 10.893617 50.7857143 16 50.7857143 5.44680851 42.1730769"></polygon>
                        <polygon id="Path-49" points="0.180851064 48 0 52.2307692 0.904255319 54.9230769 11.5744681 58 17 58 5.78723404 50.6923077"></polygon>
                        <polygon id="Path-49" points="0.14893617 56 0 60.6538462 0.744680851 63.6153846 9.53191489 67 14 67 4.76595745 58.9615385"></polygon>
                        <polygon id="Path-49" points="0.127659574 65 0 68.3846154 0.638297872 70.5384615 8.17021277 73 12 73 4.08510638 67.1538462"></polygon>
                        <polygon id="Path-49" points="0.138297872 6 0 9.38461538 0.691489362 11.5384615 8.85106383 14 13 14 4.42553191 8.15384615"></polygon>
                        <polygon id="Path-49" points="0.117021277 72 0 74.9615385 0.585106383 76.8461538 7.4893617 79 11 79 3.74468085 73.8846154"></polygon>
                        <polygon id="Path-49" points="0.106382979 -1.91113151e-15 0 2.96153846 0.531914894 4.84615385 6.80851064 7 10 7 3.40425532 1.88461538"></polygon>
                    </g>
                    <g id="right" transform="translate(8.500000, 39.500000) scale(-1, 1) translate(-8.500000, -39.500000) " fill="#2A9136" stroke="#207329">
                        <polygon id="Path-49" points="0.14893617 13 3.55271368e-15 17.2307692 0.744680851 19.9230769 9.53191489 23 14 23 4.76595745 15.6923077"></polygon>
                        <polygon id="Path-49" points="0.159574468 21 0 25.532967 0.79787234 28.4175824 10.212766 31.7142857 15 31.7142857 5.10638298 23.8846154"></polygon>
                        <polygon id="Path-49" points="0.170212766 30 0 34.9862637 0.85106383 38.1593407 10.893617 41.7857143 16 41.7857143 5.44680851 33.1730769"></polygon>
                        <polygon id="Path-49" points="0.170212766 39 0 43.9862637 0.85106383 47.1593407 10.893617 50.7857143 16 50.7857143 5.44680851 42.1730769"></polygon>
                        <polygon id="Path-49" points="0.180851064 48 0 52.2307692 0.904255319 54.9230769 11.5744681 58 17 58 5.78723404 50.6923077"></polygon>
                        <polygon id="Path-49" points="0.14893617 56 0 60.6538462 0.744680851 63.6153846 9.53191489 67 14 67 4.76595745 58.9615385"></polygon>
                        <polygon id="Path-49" points="0.127659574 65 0 68.3846154 0.638297872 70.5384615 8.17021277 73 12 73 4.08510638 67.1538462"></polygon>
                        <polygon id="Path-49" points="0.138297872 6 0 9.38461538 0.691489362 11.5384615 8.85106383 14 13 14 4.42553191 8.15384615"></polygon>
                        <polygon id="Path-49" points="0.117021277 72 0 74.9615385 0.585106383 76.8461538 7.4893617 79 11 79 3.74468085 73.8846154"></polygon>
                        <polygon id="Path-49" points="0.106382979 -1.91113151e-15 0 2.96153846 0.531914894 4.84615385 6.80851064 7 10 7 3.40425532 1.88461538"></polygon>
                    </g>
                </g>
                <g id="fern-branch" transform="translate(100.081722, 77.988352) rotate(71.000000) translate(-100.081722, -77.988352) translate(90.581722, 49.988352)">
                    <line x1="9.5" y1="-2.72848411e-12" x2="9.52930222" y2="55.5946583" id="Line" stroke="#7A9265" stroke-width="2" stroke-linecap="round"></line>
                    <g id="right" transform="translate(10.027778, 0.630952)" fill="#2A9136" stroke="#207329">
                        <polygon id="Path-49" points="0.0786052009 8.20238095 1.87504333e-15 10.8717949 0.393026005 12.5705128 5.03073286 14.5119048 7.38888889 14.5119048 2.51536643 9.9010989"></polygon>
                        <polygon id="Path-49" points="0.0842198582 13.25 0 16.1100863 0.421099291 17.9301413 5.39007092 20.0102041 7.91666667 20.0102041 2.69503546 15.0700549"></polygon>
                        <polygon id="Path-49" points="0.0898345154 18.9285714 0 22.0746664 0.449172577 24.0767268 5.74940898 26.3647959 8.44444444 26.3647959 2.87470449 20.9306319"></polygon>
                        <polygon id="Path-49" points="0.0898345154 24.6071429 0 27.7532378 0.449172577 29.7552983 5.74940898 32.0433673 8.44444444 32.0433673 2.87470449 26.6092033"></polygon>
                        <polygon id="Path-49" points="0.0954491726 30.2857143 0 32.9551282 0.477245863 34.6538462 6.10874704 36.5952381 8.97222222 36.5952381 3.05437352 31.9844322"></polygon>
                        <polygon id="Path-49" points="0.0786052009 35.3333333 0 38.2696886 0.393026005 40.1382784 5.03073286 42.2738095 7.38888889 42.2738095 2.51536643 37.2019231"></polygon>
                        <polygon id="Path-49" points="0.0673758865 41.0119048 0 43.1474359 0.336879433 44.5064103 4.31205674 46.0595238 6.33333333 46.0595238 2.15602837 42.3708791"></polygon>
                        <polygon id="Path-49" points="0.0729905437 3.78571429 0 5.92124542 0.364952719 7.28021978 4.6713948 8.83333333 6.86111111 8.83333333 2.3356974 5.14468864"></polygon>
                        <polygon id="Path-49" points="0.0617612293 45.4285714 0 47.2971612 0.308806147 48.4862637 3.95271868 49.8452381 5.80555556 49.8452381 1.97635934 46.617674"></polygon>
                        <polygon id="Path-49" points="0.0561465721 -1.20583298e-15 0 1.86858974 0.280732861 3.05769231 3.59338061 4.41666667 5.27777778 4.41666667 1.79669031 1.18910256"></polygon>
                    </g>
                    <g id="right" transform="translate(4.486111, 24.922619) scale(-1, 1) translate(-4.486111, -24.922619) " fill="#2A9136" stroke="#207329">
                        <polygon id="Path-49" points="0.0786052009 8.20238095 1.87504333e-15 10.8717949 0.393026005 12.5705128 5.03073286 14.5119048 7.38888889 14.5119048 2.51536643 9.9010989"></polygon>
                        <polygon id="Path-49" points="0.0842198582 13.25 0 16.1100863 0.421099291 17.9301413 5.39007092 20.0102041 7.91666667 20.0102041 2.69503546 15.0700549"></polygon>
                        <polygon id="Path-49" points="0.0898345154 18.9285714 0 22.0746664 0.449172577 24.0767268 5.74940898 26.3647959 8.44444444 26.3647959 2.87470449 20.9306319"></polygon>
                        <polygon id="Path-49" points="0.0898345154 24.6071429 0 27.7532378 0.449172577 29.7552983 5.74940898 32.0433673 8.44444444 32.0433673 2.87470449 26.6092033"></polygon>
                        <polygon id="Path-49" points="0.0954491726 30.2857143 0 32.9551282 0.477245863 34.6538462 6.10874704 36.5952381 8.97222222 36.5952381 3.05437352 31.9844322"></polygon>
                        <polygon id="Path-49" points="0.0786052009 35.3333333 0 38.2696886 0.393026005 40.1382784 5.03073286 42.2738095 7.38888889 42.2738095 2.51536643 37.2019231"></polygon>
                        <polygon id="Path-49" points="0.0673758865 41.0119048 0 43.1474359 0.336879433 44.5064103 4.31205674 46.0595238 6.33333333 46.0595238 2.15602837 42.3708791"></polygon>
                        <polygon id="Path-49" points="0.0729905437 3.78571429 0 5.92124542 0.364952719 7.28021978 4.6713948 8.83333333 6.86111111 8.83333333 2.3356974 5.14468864"></polygon>
                        <polygon id="Path-49" points="0.0617612293 45.4285714 0 47.2971612 0.308806147 48.4862637 3.95271868 49.8452381 5.80555556 49.8452381 1.97635934 46.617674"></polygon>
                        <polygon id="Path-49" points="0.0561465721 -1.20583298e-15 0 1.86858974 0.280732861 3.05769231 3.59338061 4.41666667 5.27777778 4.41666667 1.79669031 1.18910256"></polygon>
                    </g>
                </g>
            </g>
        </g>
    </g>
</svg>