<?xml version="1.0" encoding="UTF-8"?>
<svg width="399px" height="485px" viewBox="0 0 399 485" version="1.1" xmlns="http://www.w3.org/2000/svg" xmlns:xlink="http://www.w3.org/1999/xlink">
    <title>book</title>
    <g id="Gatsby" stroke="none" stroke-width="1" fill="none" fill-rule="evenodd">
        <g id="book">
            <path class='text-color-svg' d="M334.455882,0 C344.04811,0.305051642 351.753981,8.01620668 352.058824,17.6150121 L352.058824,17.6150121 L352.058824,77.5060533 L381.397059,77.5060533 C391.118787,77.5060533 399,85.3926703 399,95.1210654 L399,95.1210654 L399,467.384988 C399,477.113383 391.118787,485 381.397059,485 L381.397059,485 L56.3294118,485 C25.2194221,485 0,459.763284 0,428.631961 L0,428.631961 L0,56.3680387 C0,25.2367159 25.2194221,0 56.3294118,0 L56.3294118,0 Z M307.3,366.08 C303.34,366.08 303.34,366.08 300.19,367.25 C297.04,368.42 297.04,368.42 294.82,370.58 C292.6,372.74 292.6,372.74 291.4,375.83 C290.2,378.92 290.2,378.92 290.2,382.76 C290.2,386.48 290.2,386.48 291.46,389.48 C292.72,392.48 292.72,392.48 295.03,394.64 C297.34,396.8 297.34,396.8 300.58,397.97 C303.82,399.14 303.82,399.14 307.72,399.14 C320.228,399.14 320.228,399.14 323.51135,388.929067 L323.62,388.58 L313.12,388.58 C311.32,391.46 311.32,391.46 307.78,391.46 C301.3175,391.46 301.3175,391.46 301.182865,384.729453 L301.18,384.44 L324.04,384.44 L324.04,383.3 C324.04,379.28 324.04,379.28 322.9,376.07 C321.76,372.86 321.76,372.86 319.6,370.64 C317.44,368.42 317.44,368.42 314.32,367.25 C311.2,366.08 311.2,366.08 307.3,366.08 Z M188.68,366.08 C184.72,366.08 184.72,366.08 181.57,367.25 C178.42,368.42 178.42,368.42 176.2,370.58 C173.98,372.74 173.98,372.74 172.78,375.83 C171.58,378.92 171.58,378.92 171.58,382.76 C171.58,386.48 171.58,386.48 172.84,389.48 C174.1,392.48 174.1,392.48 176.41,394.64 C178.72,396.8 178.72,396.8 181.96,397.97 C185.2,399.14 185.2,399.14 189.1,399.14 C201.608,399.14 201.608,399.14 204.89135,388.929067 L205,388.58 L194.5,388.58 C192.7,391.46 192.7,391.46 189.16,391.46 C182.6975,391.46 182.6975,391.46 182.562865,384.729453 L182.56,384.44 L205.42,384.44 L205.42,383.3 C205.42,379.28 205.42,379.28 204.28,376.07 C203.14,372.86 203.14,372.86 200.98,370.64 C198.82,368.42 198.82,368.42 195.7,367.25 C192.58,366.08 192.58,366.08 188.68,366.08 Z M346.76,357.98 L335.9,357.98 L335.9,367.22 L332.3,367.22 L332.3,376.28 L335.9,376.28 L335.9,398 L346.76,398 L346.76,376.28 L352.94,376.28 L352.94,367.22 L346.76,367.22 L346.76,357.98 Z M268.26,366.56 C265.2,366.56 265.2,366.56 262.92,367.49 C260.7825,368.361875 260.7825,368.361875 258.697734,370.789414 L258.42,371.12 L258.42,367.22 L247.56,367.22 L247.56,398 L258.42,398 L258.42,381.56 C258.42,378.5 258.42,378.5 259.89,376.85 C261.36,375.2 261.36,375.2 264.12,375.2 C265.14,375.2 265.14,375.2 266.04,375.5 C266.94,375.8 266.94,375.8 267.66,376.52 C268.5,377.36 268.5,377.36 268.83,378.77 C269.13,380.051818 269.13,380.051818 269.157273,382.052645 L269.16,382.46 L269.16,398 L280.02,398 L280.02,378.44 C280.02,375.98 280.02,375.98 279.54,374.06 C279.06,372.14 279.06,372.14 277.74,370.58 C276.12,368.66 276.12,368.66 273.81,367.61 C271.5,366.56 271.5,366.56 268.26,366.56 Z M237.53,366.56 L236.6,366.56 C233.24,366.56 233.24,366.56 230.72,368.03 C228.368,369.402 228.368,369.402 226.695467,371.897733 L226.46,372.26 L226.46,367.22 L215.6,367.22 L215.6,398 L226.46,398 L226.46,384.8 C226.46,380.48 226.46,380.48 228.35,378.23 C230.24,375.98 230.24,375.98 234.02,375.98 C236.346154,375.98 236.346154,375.98 238.365562,376.900237 L238.7,377.06 L238.7,366.68 C238.172,366.584 238.172,366.584 237.74,366.5648 L237.53,366.56 Z M157.92,357.98 L147.06,357.98 L147.06,367.22 L143.46,367.22 L143.46,376.28 L147.06,376.28 L147.06,398 L157.92,398 L157.92,376.28 L164.1,376.28 L164.1,367.22 L157.92,367.22 L157.92,357.98 Z M122.66,366.56 C119.6,366.56 119.6,366.56 117.32,367.49 C115.1825,368.361875 115.1825,368.361875 113.097734,370.789414 L112.82,371.12 L112.82,367.22 L101.96,367.22 L101.96,398 L112.82,398 L112.82,381.56 C112.82,378.5 112.82,378.5 114.29,376.85 C115.76,375.2 115.76,375.2 118.52,375.2 C119.54,375.2 119.54,375.2 120.44,375.5 C121.34,375.8 121.34,375.8 122.06,376.52 C122.9,377.36 122.9,377.36 123.23,378.77 C123.53,380.051818 123.53,380.051818 123.557273,382.052645 L123.56,382.46 L123.56,398 L134.42,398 L134.42,378.44 C134.42,375.98 134.42,375.98 133.94,374.06 C133.46,372.14 133.46,372.14 132.14,370.58 C130.52,368.66 130.52,368.66 128.21,367.61 C125.9,366.56 125.9,366.56 122.66,366.56 Z M89.5,352.76 L77.74,352.76 L77.74,398 L89.5,398 L89.5,352.76 Z M307.6,373.1 C310,373.1 310,373.1 311.68,374.48 C313.36,375.86 313.36,375.86 313.9,378.14 L301.48,378.14 C301.9,375.74 301.9,375.74 303.49,374.42 C305.08,373.1 305.08,373.1 307.6,373.1 Z M188.98,373.1 C191.38,373.1 191.38,373.1 193.06,374.48 C194.74,375.86 194.74,375.86 195.28,378.14 L182.86,378.14 C183.28,375.74 183.28,375.74 184.87,374.42 C186.46,373.1 186.46,373.1 188.98,373.1 Z M278.46,276.08 C274.5,276.08 274.5,276.08 271.35,277.25 C268.2,278.42 268.2,278.42 265.98,280.58 C263.76,282.74 263.76,282.74 262.56,285.83 C261.36,288.92 261.36,288.92 261.36,292.76 C261.36,296.48 261.36,296.48 262.62,299.48 C263.88,302.48 263.88,302.48 266.19,304.64 C268.5,306.8 268.5,306.8 271.74,307.97 C274.98,309.14 274.98,309.14 278.88,309.14 C291.388,309.14 291.388,309.14 294.67135,298.929067 L294.78,298.58 L284.28,298.58 C282.48,301.46 282.48,301.46 278.94,301.46 C272.4775,301.46 272.4775,301.46 272.342865,294.729453 L272.34,294.44 L295.2,294.44 L295.2,293.3 C295.2,289.28 295.2,289.28 294.06,286.07 C292.92,282.86 292.92,282.86 290.76,280.64 C288.6,278.42 288.6,278.42 285.48,277.25 C282.36,276.08 282.36,276.08 278.46,276.08 Z M94,276.08 C89.98,276.08 89.98,276.08 86.59,277.34 C83.2,278.6 83.2,278.6 80.74,280.79 C78.28,282.98 78.28,282.98 76.9,285.95 C75.52,288.92 75.52,288.92 75.52,292.34 C75.52,296.12 75.52,296.12 76.9,299.21 C78.28,302.3 78.28,302.3 80.71,304.52 C83.14,306.74 83.14,306.74 86.5,307.94 C89.86,309.14 89.86,309.14 93.82,309.14 C97.84,309.14 97.84,309.14 101.29,307.94 C104.74,306.74 104.74,306.74 107.2,304.55 C109.66,302.36 109.66,302.36 111.07,299.33 C112.48,296.3 112.48,296.3 112.48,292.64 C112.48,288.98 112.48,288.98 111.1,285.95 C109.72,282.92 109.72,282.92 107.23,280.73 C104.74,278.54 104.74,278.54 101.35,277.31 C97.96,276.08 97.96,276.08 94,276.08 Z M229.58,258.2 L218.72,258.2 L218.72,308 L229.58,308 L229.58,291.56 C229.58,288.5 229.58,288.5 231.05,286.85 C232.52,285.2 232.52,285.2 235.28,285.2 C237.32,285.2 237.32,285.2 238.76,286.46 C239.6,287.24 239.6,287.24 239.96,288.68 C240.287273,289.989091 240.287273,289.989091 240.317025,292.041983 L240.32,292.46 L240.32,308 L251.18,308 L251.18,288.44 C251.18,282.98 251.18,282.98 248.21,279.77 C245.24,276.56 245.24,276.56 239.42,276.56 C236.36,276.56 236.36,276.56 234.08,277.49 C231.9425,278.361875 231.9425,278.361875 229.857734,280.789414 L229.58,281.12 L229.58,258.2 Z M143.42,276.56 C140.36,276.56 140.36,276.56 138.08,277.49 C135.9425,278.361875 135.9425,278.361875 133.857734,280.789414 L133.58,281.12 L133.58,277.22 L122.72,277.22 L122.72,308 L133.58,308 L133.58,291.56 C133.58,288.5 133.58,288.5 135.05,286.85 C136.52,285.2 136.52,285.2 139.28,285.2 C140.3,285.2 140.3,285.2 141.2,285.5 C142.1,285.8 142.1,285.8 142.82,286.52 C143.66,287.36 143.66,287.36 143.99,288.77 C144.29,290.051818 144.29,290.051818 144.317273,292.052645 L144.32,292.46 L144.32,308 L155.18,308 L155.18,288.44 C155.18,285.98 155.18,285.98 154.7,284.06 C154.22,282.14 154.22,282.14 152.9,280.58 C151.28,278.66 151.28,278.66 148.97,277.61 C146.66,276.56 146.66,276.56 143.42,276.56 Z M203.08,267.98 L192.22,267.98 L192.22,277.22 L188.62,277.22 L188.62,286.28 L192.22,286.28 L192.22,308 L203.08,308 L203.08,286.28 L209.26,286.28 L209.26,277.22 L203.08,277.22 L203.08,267.98 Z M94,285.5 C95.44,285.5 95.44,285.5 96.73,286.04 C98.02,286.58 98.02,286.58 98.95,287.54 C99.88,288.5 99.88,288.5 100.45,289.79 C101.02,291.08 101.02,291.08 101.02,292.52 C101.02,294.02 101.02,294.02 100.45,295.31 C99.88,296.6 99.88,296.6 98.95,297.56 C98.02,298.52 98.02,298.52 96.73,299.06 C95.44,299.6 95.44,299.6 94,299.6 C92.56,299.6 92.56,299.6 91.27,299.06 C89.98,298.52 89.98,298.52 89.05,297.56 C88.12,296.6 88.12,296.6 87.55,295.31 C86.98,294.02 86.98,294.02 86.98,292.46 C86.98,291.02 86.98,291.02 87.55,289.76 C88.12,288.5 88.12,288.5 89.05,287.54 C89.98,286.58 89.98,286.58 91.27,286.04 C92.56,285.5 92.56,285.5 94,285.5 Z M278.76,283.1 C281.16,283.1 281.16,283.1 282.84,284.48 C284.52,285.86 284.52,285.86 285.06,288.14 L272.64,288.14 C273.06,285.74 273.06,285.74 274.65,284.42 C276.24,283.1 276.24,283.1 278.76,283.1 Z M294.12,187.22 L281.52,187.22 L296.4,213.8 L285.9,233.36 L298.08,233.36 L322.8,187.22 L310.32,187.22 L302.34,203 L294.12,187.22 Z M99.76,171.5 C94.3,171.5 94.3,171.5 89.86,173.24 C85.42,174.98 85.42,174.98 82.27,178.1 C79.12,181.22 79.12,181.22 77.41,185.63 C75.7,190.04 75.7,190.04 75.7,195.32 C75.7,200.66 75.7,200.66 77.44,205.07 C79.18,209.48 79.18,209.48 82.3,212.63 C85.42,215.78 85.42,215.78 89.77,217.52 C94.12,219.26 94.12,219.26 99.4,219.26 C103.24,219.26 103.24,219.26 106.72,218.3 C110.2,217.34 110.2,217.34 113.11,215.51 C116.02,213.68 116.02,213.68 118.18,210.95 C120.34,208.22 120.34,208.22 121.6,204.68 C122.5,202.16 122.5,202.16 122.8,199.22 C123.066667,196.606667 123.066667,196.606667 123.096296,193.471852 L123.1,192.68 L99.76,192.68 L99.76,201.8 L109.42,201.8 C109.12,203.78 109.12,203.78 108.28,205.16 C107.44,206.54 107.44,206.54 106.15,207.41 C104.86,208.28 104.86,208.28 103.24,208.67 C101.62,209.06 101.62,209.06 99.88,209.06 C96.94,209.06 96.94,209.06 94.72,208.07 C92.5,207.08 92.5,207.08 91,205.28 C89.5,203.48 89.5,203.48 88.75,201.02 C88,198.56 88,198.56 88,195.68 C88,192.5 88,192.5 88.87,189.92 C89.74,187.34 89.74,187.34 91.27,185.51 C92.8,183.68 92.8,183.68 94.96,182.69 C97.12,181.7 97.12,181.7 99.76,181.7 C102.94,181.7 102.94,181.7 105.43,183.32 C107.781667,184.85 107.781667,184.85 109.303796,188.253148 L109.48,188.66 L120.64,184.04 C117.52,177.62 117.52,177.62 112.18,174.56 C106.84,171.5 106.84,171.5 99.76,171.5 Z M220.42,186.08 C217.3,186.08 217.3,186.08 214.75,186.86 C212.2,187.64 212.2,187.64 210.4,189.08 C208.6,190.52 208.6,190.52 207.64,192.59 C206.68,194.66 206.68,194.66 206.68,197.24 C206.68,200.78 206.68,200.78 208.69,202.79 C210.7,204.8 210.7,204.8 215.74,205.82 C217.24,206.12 217.24,206.12 218.17,206.39 C219.1,206.66 219.1,206.66 219.58,206.99 C220.06,207.32 220.06,207.32 220.21,207.71 C220.36,208.1 220.36,208.1 220.36,208.7 C220.36,209.72 220.36,209.72 219.4,210.38 C218.44,211.04 218.44,211.04 216.94,211.04 C213.037391,211.04 213.037391,211.04 208.695614,208.185406 L208.3,207.92 L204.34,215.6 C210.4,219.14 210.4,219.14 216.64,219.14 C219.88,219.14 219.88,219.14 222.58,218.33 C225.28,217.52 225.28,217.52 227.2,216.05 C229.12,214.58 229.12,214.58 230.2,212.42 C231.28,210.26 231.28,210.26 231.28,207.56 C231.28,203.96 231.28,203.96 229.06,201.65 C226.84,199.34 226.84,199.34 222.34,198.44 C220.72,198.08 220.72,198.08 219.73,197.84 C218.74,197.6 218.74,197.6 218.23,197.3 C217.72,197 217.72,197 217.57,196.67 C217.42,196.34 217.42,196.34 217.42,195.8 C217.42,194.78 217.42,194.78 218.35,194.18 C219.28,193.58 219.28,193.58 220.78,193.58 C223.468,193.58 223.468,193.58 226.260533,194.938933 L226.66,195.14 L230.32,188.06 C225.52,186.08 225.52,186.08 220.42,186.08 Z M251.66,168.2 L240.8,168.2 L240.8,218 L251.66,218 L251.66,214.58 C255.14,218.96 255.14,218.96 261.14,218.96 C264.44,218.96 264.44,218.96 267.29,217.67 C270.14,216.38 270.14,216.38 272.24,214.16 C274.34,211.94 274.34,211.94 275.51,208.94 C276.68,205.94 276.68,205.94 276.68,202.52 C276.68,199.16 276.68,199.16 275.54,196.19 C274.4,193.22 274.4,193.22 272.39,191.03 C270.38,188.84 270.38,188.84 267.53,187.55 C264.68,186.26 264.68,186.26 261.26,186.26 C255.698621,186.26 255.698621,186.26 251.927111,190.007539 L251.66,190.28 L251.66,168.2 Z M147.74,186.26 C144.32,186.26 144.32,186.26 141.5,187.55 C138.68,188.84 138.68,188.84 136.64,191.06 C134.6,193.28 134.6,193.28 133.46,196.25 C132.32,199.22 132.32,199.22 132.32,202.52 C132.32,206.06 132.32,206.06 133.49,209.06 C134.66,212.06 134.66,212.06 136.76,214.28 C138.86,216.5 138.86,216.5 141.68,217.73 C144.5,218.96 144.5,218.96 147.86,218.96 C153.608387,218.96 153.608387,218.96 157.052924,214.858023 L157.28,214.58 L157.28,218 L168.2,218 L168.2,187.22 L157.28,187.22 L157.28,190.28 C153.5,186.26 153.5,186.26 147.74,186.26 Z M191.7,177.98 L180.84,177.98 L180.84,187.22 L177.24,187.22 L177.24,196.28 L180.84,196.28 L180.84,218 L191.7,218 L191.7,196.28 L197.88,196.28 L197.88,187.22 L191.7,187.22 L191.7,177.98 Z M258.32,195.62 C259.82,195.62 259.82,195.62 261.08,196.19 C262.34,196.76 262.34,196.76 263.3,197.72 C264.26,198.68 264.26,198.68 264.8,199.97 C265.34,201.26 265.34,201.26 265.34,202.7 C265.34,204.08 265.34,204.08 264.77,205.34 C264.2,206.6 264.2,206.6 263.27,207.56 C262.34,208.52 262.34,208.52 261.08,209.06 C259.82,209.6 259.82,209.6 258.38,209.6 C256.94,209.6 256.94,209.6 255.65,209.03 C254.36,208.46 254.36,208.46 253.4,207.53 C252.44,206.6 252.44,206.6 251.9,205.34 C251.36,204.08 251.36,204.08 251.36,202.64 C251.36,201.2 251.36,201.2 251.93,199.91 C252.5,198.62 252.5,198.62 253.43,197.66 C254.36,196.7 254.36,196.7 255.62,196.16 C256.88,195.62 256.88,195.62 258.32,195.62 Z M150.62,195.62 C152.06,195.62 152.06,195.62 153.35,196.16 C154.64,196.7 154.64,196.7 155.57,197.66 C156.5,198.62 156.5,198.62 157.07,199.91 C157.64,201.2 157.64,201.2 157.64,202.64 C157.64,204.08 157.64,204.08 157.07,205.34 C156.5,206.6 156.5,206.6 155.57,207.56 C154.64,208.52 154.64,208.52 153.35,209.06 C152.06,209.6 152.06,209.6 150.62,209.6 C149.12,209.6 149.12,209.6 147.83,209.06 C146.54,208.52 146.54,208.52 145.61,207.56 C144.68,206.6 144.68,206.6 144.14,205.31 C143.6,204.02 143.6,204.02 143.6,202.52 C143.6,201.08 143.6,201.08 144.14,199.85 C144.68,198.62 144.68,198.62 145.61,197.66 C146.54,196.7 146.54,196.7 147.83,196.16 C149.12,195.62 149.12,195.62 150.62,195.62 Z M316.852941,35.2300242 L56.3294118,35.2300242 C44.6628791,35.2300242 35.2058824,44.693506 35.2058824,56.3680387 C35.2058824,68.0425715 44.6628791,77.5060533 56.3294118,77.5060533 L56.3294118,77.5060533 L316.852941,77.5060533 L316.852941,35.2300242 Z" id="Combined-Shape" fill="#000000" fill-rule="nonzero"></path>
            <rect class='background-color-svg-stroke' id="Rectangle" stroke="#FFFFFF" stroke-width="4" x="56" y="108" width="320" height="349"></rect>
            <rect class='background-color-svg-stroke' id="Rectangle" stroke="#FFFFFF" stroke-width="4" x="45" y="96" width="342" height="372"></rect>
        </g>
    </g>
</svg>