<?xml version="1.0" encoding="UTF-8"?>
<svg width="729px" height="780px" viewBox="0 0 729 780" version="1.1" xmlns="http://www.w3.org/2000/svg" xmlns:xlink="http://www.w3.org/1999/xlink">
    <title>Icon: Block chain token with HTML symbol</title>
    <g id="NFT-+-HTML" stroke="none" stroke-width="1" fill="none" fill-rule="evenodd">
        <g id="nft-(4)" fill="#000000" fill-rule="nonzero">
            <path class='text-color-svg' d="M716,624 L716,676 L664,676 L664,624 L716,624 Z M52,182 L52,234 L0,234 L0,182 L52,182 Z M676.853194,402.994376 C653.215191,403.071137 632.606022,419.089173 626.696615,441.977505 L572.901734,441.977505 L572.901734,338.022495 L626.696615,338.022495 C633.239931,363.365514 657.606409,379.889403 683.571064,376.591347 C709.535719,373.293291 729,351.202276 729,325.028118 C729,298.85396 709.535719,276.762946 683.571064,273.46489 C657.606409,270.166833 633.239931,286.690723 626.696615,312.033742 L572.901734,312.033742 L572.901734,299.948972 C572.767923,276.602544 560.118667,255.122877 539.767206,243.683323 L494.938139,218.864064 L494.938139,161.428921 L520.926004,135.440168 C543.838513,148.798228 573.110649,143.018037 589.226363,121.95331 C605.342076,100.888584 603.264756,71.1226375 584.379374,52.5007508 C565.493992,33.8788641 535.702758,32.2208971 514.867811,48.6322343 C494.032864,65.0435715 488.665706,94.3952114 502.344681,117.118097 L472.718515,146.615332 C470.221223,149.130953 468.859988,152.557628 468.950274,156.101226 L468.950274,204.440306 L396.184252,164.15774 C390.492009,161.037947 384.357846,158.803283 377.992747,157.530608 L377.992747,102.304508 C403.334901,95.7609688 419.858226,71.3936585 416.560282,45.4281165 C413.262338,19.4625745 391.172078,0 364.998814,0 C338.82555,0 316.73529,19.4625745 313.437347,45.4281165 C310.139403,71.3936585 326.662728,95.7609688 352.004882,102.304508 L352.004882,157.530608 C345.639783,158.803283 339.50562,161.037947 333.813376,164.15774 L261.047355,204.440306 L261.047355,156.101226 C261.067323,152.647282 259.711403,149.327503 257.279114,146.875219 L227.652948,117.118097 C241.121414,94.2907028 235.512767,65.0088831 214.562403,48.7745306 C193.61204,32.5401781 163.858204,34.4197513 145.117153,53.1614417 C126.376103,71.9031321 124.496594,101.657985 140.730392,122.609064 C156.96419,143.560143 186.24501,149.168982 209.071625,135.700055 L235.05949,161.688808 L235.05949,219.123951 L190.230422,243.94321 C169.959168,255.336729 157.322597,276.695742 157.095895,299.948972 L157.095895,312.033742 L103.301014,312.033742 C96.7576981,286.690723 72.39122,270.166833 46.4265649,273.46489 C20.4619097,276.762946 1,298.85396 1,325.028118 C1,351.202276 20.4619097,373.293291 46.4265649,376.591347 C72.39122,379.889403 96.7576981,363.365514 103.301014,338.022495 L157.095895,338.022495 L157.095895,441.977505 L103.301014,441.977505 C96.7576981,416.634486 72.39122,400.110597 46.4265649,403.408653 C20.4619097,406.706709 1,428.797724 1,454.971882 C1,481.14604 20.4619097,503.237054 46.4265649,506.53511 C72.39122,509.833167 96.7576981,493.309277 103.301014,467.966258 L157.095895,467.966258 L157.095895,480.051028 C157.229706,503.397456 169.878962,524.877123 190.230422,536.316677 L235.05949,561.135936 L235.05949,618.571079 L209.071625,644.559832 C186.159116,631.201772 156.88698,636.981963 140.771266,658.04669 C124.655553,679.111416 126.732873,708.877362 145.618255,727.499249 C164.503637,746.121136 194.294871,747.779103 215.129818,731.367766 C235.964765,714.956428 241.331923,685.604789 227.652948,662.881903 L257.279114,633.384668 C259.776406,630.869047 261.137641,627.442372 261.047355,623.898774 L261.047355,575.559694 L333.813376,615.84226 C339.496187,618.982829 345.633642,621.218693 352.004882,622.469392 L352.004882,677.695492 C326.662728,684.239031 310.139403,708.606341 313.437347,734.571884 C316.73529,760.537426 338.82555,780 364.998814,780 C391.172078,780 413.262338,760.537426 416.560282,734.571884 C419.858226,708.606341 403.334901,684.239031 377.992747,677.695492 L377.992747,622.469392 C384.363986,621.218693 390.501442,618.982829 396.184252,615.84226 L468.950274,575.559694 L468.950274,623.898774 C468.930306,627.352718 470.286226,630.672497 472.718515,633.124781 L502.344681,662.881903 C488.876215,685.709297 494.484862,714.991117 515.435226,731.225469 C536.385589,747.459822 566.139425,745.580249 584.880475,726.838558 C603.621526,708.096868 605.501035,678.342015 589.267237,657.390936 C573.033439,636.439857 543.752619,630.831018 520.926004,644.299945 L494.938139,618.311192 L494.938139,561.135936 L539.767206,536.316677 C560.118667,524.877123 572.767923,503.397456 572.901734,480.051028 L572.901734,467.966258 L626.696615,467.966258 C633.454725,494.140611 659.147262,510.765076 685.791569,506.203897 C712.435875,501.642719 731.13614,477.418751 728.803718,450.486774 C726.471297,423.554798 703.884922,402.906669 676.853194,402.994376 Z M676.853194,299.039366 C691.205896,299.039366 702.841059,310.674927 702.841059,325.028118 C702.841059,339.38131 691.205896,351.016871 676.853194,351.016871 C662.500493,351.016871 650.865329,339.38131 650.865329,325.028118 C650.865329,310.674927 662.500493,299.039366 676.853194,299.039366 Z M546.913869,65.1405837 C558.660346,65.1499737 568.940164,73.0379324 571.989843,84.3820084 C575.039522,95.7260844 570.100768,107.7056 559.94254,113.604125 C549.784312,119.50265 536.93243,117.853529 528.592425,109.581359 L528.592425,109.581359 C521.113077,102.162847 518.851848,90.9629112 522.867072,81.2235244 C526.882296,71.4841376 536.379586,65.1321786 546.913869,65.1405837 L546.913869,65.1405837 Z M157.095886,91.1293447 C157.105276,79.3824664 164.992965,69.1022978 176.336654,66.0525144 C187.680342,63.002731 199.659449,67.9416542 205.557772,78.1002291 C211.456095,88.258804 209.807031,101.111125 201.535144,109.451415 L201.535144,109.451415 C194.116885,116.931018 182.917332,119.192325 173.178278,115.176964 C163.439224,111.161602 157.087481,101.663988 157.095886,91.1293447 Z M53.1444347,351.016871 C38.7917332,351.016871 27.1565697,339.38131 27.1565697,325.028118 C27.1565697,310.674927 38.7917332,299.039366 53.1444347,299.039366 C67.4971362,299.039366 79.1322997,310.674927 79.1322997,325.028118 C79.1322997,339.38131 67.4971362,351.016871 53.1444347,351.016871 Z M53.1444347,480.960634 C38.7917332,480.960634 27.1565697,469.325073 27.1565697,454.971882 C27.1565697,440.61869 38.7917332,428.983129 53.1444347,428.983129 C67.4971362,428.983129 79.1322997,440.61869 79.1322997,454.971882 C79.1322997,469.325073 67.4971362,480.960634 53.1444347,480.960634 Z M183.08376,714.859416 C171.337282,714.850026 161.057465,706.962068 158.007786,695.617992 C154.958107,684.273916 159.896861,672.2944 170.055089,666.395875 C180.213317,660.49735 193.065199,662.146471 201.405204,670.418641 L201.405204,670.418641 C208.884551,677.837153 211.145781,689.037089 207.130557,698.776476 C203.115333,708.515862 193.618043,714.867821 183.08376,714.859416 Z M572.901743,688.870655 C572.892353,700.617534 565.004664,710.897702 553.660975,713.947486 C542.317287,716.997269 530.33818,712.058346 524.439857,701.899771 C518.541533,691.741196 520.190597,678.888875 528.462485,670.548585 L528.462485,670.548585 C535.880744,663.068982 547.080297,660.807675 556.819351,664.823036 C566.558405,668.838398 572.910147,678.336012 572.901743,688.870655 Z M339.010949,52.1462158 C339.010949,37.793024 350.646113,26.1574631 364.998814,26.1574631 C379.351516,26.1574631 390.986679,37.793024 390.986679,52.1462158 C390.986679,66.4994075 379.351516,78.1349684 364.998814,78.1349684 C350.646113,78.1349684 339.010949,66.4994075 339.010949,52.1462158 Z M390.986679,727.853784 C390.986679,742.206976 379.351516,753.842537 364.998814,753.842537 C350.646113,753.842537 339.010949,742.206976 339.010949,727.853784 C339.010949,713.500592 350.646113,701.865032 364.998814,701.865032 C379.351516,701.865032 390.986679,713.500592 390.986679,727.853784 Z M378.493663,295.429549 C380.469613,288.53988 387.671433,284.536073 394.574261,286.498979 C401.464088,288.474884 405.467988,295.676537 403.505037,302.579205 L403.505037,302.579205 L351.506337,484.570451 C349.530387,491.46012 342.328567,495.463927 335.425739,493.501021 C328.535912,491.525116 324.532012,484.323463 326.494963,477.420795 L326.494963,477.420795 Z M676.853194,428.983129 C691.205896,428.983129 702.841059,440.61869 702.841059,454.971882 C702.841059,469.325073 691.205896,480.960634 676.853194,480.960634 C662.500493,480.960634 650.865329,469.325073 650.865329,454.971882 C650.865329,440.61869 662.500493,428.983129 676.853194,428.983129 Z M309.192395,328.811943 C314.262268,333.881699 314.262268,342.123303 309.192395,347.193059 L266.384465,390 L309.192395,432.806941 C314.262268,437.876697 314.262268,446.118301 309.192395,451.188057 C304.122522,456.257813 295.880728,456.257813 290.810855,451.188057 L238.812155,399.190558 C233.729282,394.120802 233.729282,385.879198 238.812155,380.809442 L290.810855,328.811943 C295.880728,323.742187 304.122522,323.742187 309.192395,328.811943 Z M439.189145,328.811943 L491.187845,380.809442 C496.270718,385.879198 496.270718,394.120802 491.187845,399.190558 L439.189145,451.188057 C434.119272,456.257813 425.877478,456.257813 420.807605,451.188057 C415.737732,446.118301 415.737732,437.876697 420.807605,432.806941 L463.615535,390 L420.807605,347.193059 C415.737732,342.123303 415.737732,333.881699 420.807605,328.811943 C425.877478,323.742187 434.119272,323.742187 439.189145,328.811943 Z" id="Shape"></path>
        </g>
    </g>
</svg>